<?xml version="1.0" encoding="utf-8" standalone="no"?>
<!DOCTYPE svg PUBLIC "-//W3C//DTD SVG 1.1//EN"
  "http://www.w3.org/Graphics/SVG/1.1/DTD/svg11.dtd">
<svg xmlns:xlink="http://www.w3.org/1999/xlink" width="864pt" height="360pt" viewBox="0 0 864 360" xmlns="http://www.w3.org/2000/svg" version="1.1">
 <metadata>
  <rdf:RDF xmlns:dc="http://purl.org/dc/elements/1.1/" xmlns:cc="http://creativecommons.org/ns#" xmlns:rdf="http://www.w3.org/1999/02/22-rdf-syntax-ns#">
   <cc:Work>
    <dc:type rdf:resource="http://purl.org/dc/dcmitype/StillImage"/>
    <dc:date>2023-04-23T13:23:30.154420</dc:date>
    <dc:format>image/svg+xml</dc:format>
    <dc:creator>
     <cc:Agent>
      <dc:title>Matplotlib v3.6.2, https://matplotlib.org/</dc:title>
     </cc:Agent>
    </dc:creator>
   </cc:Work>
  </rdf:RDF>
 </metadata>
 <defs>
  <style type="text/css">*{stroke-linejoin: round; stroke-linecap: butt}</style>
 </defs>
 <g id="figure_1">
  <g id="patch_1">
   <path d="M 0 360 
L 864 360 
L 864 0 
L 0 0 
z
" style="fill: #ffffff"/>
  </g>
  <g id="axes_1">
   <g id="patch_2">
    <path d="M 108 320.4 
L 777.6 320.4 
L 777.6 43.2 
L 108 43.2 
z
" style="fill: #ffffff"/>
   </g>
   <g id="matplotlib.axis_1">
    <g id="xtick_1">
     <g id="line2d_1">
      <path d="M 108.857362 320.4 
L 108.857362 43.2 
" clip-path="url(#p21d6122772)" style="fill: none; stroke: #ffffff; stroke-linecap: round"/>
     </g>
     <g id="text_1">
      <!-- 1985 -->
      <g style="fill: #262626" transform="translate(96.6233 337.773594) scale(0.11 -0.11)">
       <defs>
        <path id="ArialMT-31" d="M 2384 0 
L 1822 0 
L 1822 3584 
Q 1619 3391 1289 3197 
Q 959 3003 697 2906 
L 697 3450 
Q 1169 3672 1522 3987 
Q 1875 4303 2022 4600 
L 2384 4600 
L 2384 0 
z
" transform="scale(0.015625)"/>
        <path id="ArialMT-39" d="M 350 1059 
L 891 1109 
Q 959 728 1153 556 
Q 1347 384 1650 384 
Q 1909 384 2104 503 
Q 2300 622 2425 820 
Q 2550 1019 2634 1356 
Q 2719 1694 2719 2044 
Q 2719 2081 2716 2156 
Q 2547 1888 2255 1720 
Q 1963 1553 1622 1553 
Q 1053 1553 659 1965 
Q 266 2378 266 3053 
Q 266 3750 677 4175 
Q 1088 4600 1706 4600 
Q 2153 4600 2523 4359 
Q 2894 4119 3086 3673 
Q 3278 3228 3278 2384 
Q 3278 1506 3087 986 
Q 2897 466 2520 194 
Q 2144 -78 1638 -78 
Q 1100 -78 759 220 
Q 419 519 350 1059 
z
M 2653 3081 
Q 2653 3566 2395 3850 
Q 2138 4134 1775 4134 
Q 1400 4134 1122 3828 
Q 844 3522 844 3034 
Q 844 2597 1108 2323 
Q 1372 2050 1759 2050 
Q 2150 2050 2401 2323 
Q 2653 2597 2653 3081 
z
" transform="scale(0.015625)"/>
        <path id="ArialMT-38" d="M 1131 2484 
Q 781 2613 612 2850 
Q 444 3088 444 3419 
Q 444 3919 803 4259 
Q 1163 4600 1759 4600 
Q 2359 4600 2725 4251 
Q 3091 3903 3091 3403 
Q 3091 3084 2923 2848 
Q 2756 2613 2416 2484 
Q 2838 2347 3058 2040 
Q 3278 1734 3278 1309 
Q 3278 722 2862 322 
Q 2447 -78 1769 -78 
Q 1091 -78 675 323 
Q 259 725 259 1325 
Q 259 1772 486 2073 
Q 713 2375 1131 2484 
z
M 1019 3438 
Q 1019 3113 1228 2906 
Q 1438 2700 1772 2700 
Q 2097 2700 2305 2904 
Q 2513 3109 2513 3406 
Q 2513 3716 2298 3927 
Q 2084 4138 1766 4138 
Q 1444 4138 1231 3931 
Q 1019 3725 1019 3438 
z
M 838 1322 
Q 838 1081 952 856 
Q 1066 631 1291 507 
Q 1516 384 1775 384 
Q 2178 384 2440 643 
Q 2703 903 2703 1303 
Q 2703 1709 2433 1975 
Q 2163 2241 1756 2241 
Q 1359 2241 1098 1978 
Q 838 1716 838 1322 
z
" transform="scale(0.015625)"/>
        <path id="ArialMT-35" d="M 266 1200 
L 856 1250 
Q 922 819 1161 601 
Q 1400 384 1738 384 
Q 2144 384 2425 690 
Q 2706 997 2706 1503 
Q 2706 1984 2436 2262 
Q 2166 2541 1728 2541 
Q 1456 2541 1237 2417 
Q 1019 2294 894 2097 
L 366 2166 
L 809 4519 
L 3088 4519 
L 3088 3981 
L 1259 3981 
L 1013 2750 
Q 1425 3038 1878 3038 
Q 2478 3038 2890 2622 
Q 3303 2206 3303 1553 
Q 3303 931 2941 478 
Q 2500 -78 1738 -78 
Q 1113 -78 717 272 
Q 322 622 266 1200 
z
" transform="scale(0.015625)"/>
       </defs>
       <use xlink:href="#ArialMT-31"/>
       <use xlink:href="#ArialMT-39" x="55.615234"/>
       <use xlink:href="#ArialMT-38" x="111.230469"/>
       <use xlink:href="#ArialMT-35" x="166.845703"/>
      </g>
     </g>
    </g>
    <g id="xtick_2">
     <g id="line2d_2">
      <path d="M 194.593598 320.4 
L 194.593598 43.2 
" clip-path="url(#p21d6122772)" style="fill: none; stroke: #ffffff; stroke-linecap: round"/>
     </g>
     <g id="text_2">
      <!-- 1990 -->
      <g style="fill: #262626" transform="translate(182.359535 337.773594) scale(0.11 -0.11)">
       <defs>
        <path id="ArialMT-30" d="M 266 2259 
Q 266 3072 433 3567 
Q 600 4063 929 4331 
Q 1259 4600 1759 4600 
Q 2128 4600 2406 4451 
Q 2684 4303 2865 4023 
Q 3047 3744 3150 3342 
Q 3253 2941 3253 2259 
Q 3253 1453 3087 958 
Q 2922 463 2592 192 
Q 2263 -78 1759 -78 
Q 1097 -78 719 397 
Q 266 969 266 2259 
z
M 844 2259 
Q 844 1131 1108 757 
Q 1372 384 1759 384 
Q 2147 384 2411 759 
Q 2675 1134 2675 2259 
Q 2675 3391 2411 3762 
Q 2147 4134 1753 4134 
Q 1366 4134 1134 3806 
Q 844 3388 844 2259 
z
" transform="scale(0.015625)"/>
       </defs>
       <use xlink:href="#ArialMT-31"/>
       <use xlink:href="#ArialMT-39" x="55.615234"/>
       <use xlink:href="#ArialMT-39" x="111.230469"/>
       <use xlink:href="#ArialMT-30" x="166.845703"/>
      </g>
     </g>
    </g>
    <g id="xtick_3">
     <g id="line2d_3">
      <path d="M 280.329834 320.4 
L 280.329834 43.2 
" clip-path="url(#p21d6122772)" style="fill: none; stroke: #ffffff; stroke-linecap: round"/>
     </g>
     <g id="text_3">
      <!-- 1995 -->
      <g style="fill: #262626" transform="translate(268.095771 337.773594) scale(0.11 -0.11)">
       <use xlink:href="#ArialMT-31"/>
       <use xlink:href="#ArialMT-39" x="55.615234"/>
       <use xlink:href="#ArialMT-39" x="111.230469"/>
       <use xlink:href="#ArialMT-35" x="166.845703"/>
      </g>
     </g>
    </g>
    <g id="xtick_4">
     <g id="line2d_4">
      <path d="M 366.066069 320.4 
L 366.066069 43.2 
" clip-path="url(#p21d6122772)" style="fill: none; stroke: #ffffff; stroke-linecap: round"/>
     </g>
     <g id="text_4">
      <!-- 2000 -->
      <g style="fill: #262626" transform="translate(353.832007 337.773594) scale(0.11 -0.11)">
       <defs>
        <path id="ArialMT-32" d="M 3222 541 
L 3222 0 
L 194 0 
Q 188 203 259 391 
Q 375 700 629 1000 
Q 884 1300 1366 1694 
Q 2113 2306 2375 2664 
Q 2638 3022 2638 3341 
Q 2638 3675 2398 3904 
Q 2159 4134 1775 4134 
Q 1369 4134 1125 3890 
Q 881 3647 878 3216 
L 300 3275 
Q 359 3922 746 4261 
Q 1134 4600 1788 4600 
Q 2447 4600 2831 4234 
Q 3216 3869 3216 3328 
Q 3216 3053 3103 2787 
Q 2991 2522 2730 2228 
Q 2469 1934 1863 1422 
Q 1356 997 1212 845 
Q 1069 694 975 541 
L 3222 541 
z
" transform="scale(0.015625)"/>
       </defs>
       <use xlink:href="#ArialMT-32"/>
       <use xlink:href="#ArialMT-30" x="55.615234"/>
       <use xlink:href="#ArialMT-30" x="111.230469"/>
       <use xlink:href="#ArialMT-30" x="166.845703"/>
      </g>
     </g>
    </g>
    <g id="xtick_5">
     <g id="line2d_5">
      <path d="M 451.802305 320.4 
L 451.802305 43.2 
" clip-path="url(#p21d6122772)" style="fill: none; stroke: #ffffff; stroke-linecap: round"/>
     </g>
     <g id="text_5">
      <!-- 2005 -->
      <g style="fill: #262626" transform="translate(439.568242 337.773594) scale(0.11 -0.11)">
       <use xlink:href="#ArialMT-32"/>
       <use xlink:href="#ArialMT-30" x="55.615234"/>
       <use xlink:href="#ArialMT-30" x="111.230469"/>
       <use xlink:href="#ArialMT-35" x="166.845703"/>
      </g>
     </g>
    </g>
    <g id="xtick_6">
     <g id="line2d_6">
      <path d="M 537.53854 320.4 
L 537.53854 43.2 
" clip-path="url(#p21d6122772)" style="fill: none; stroke: #ffffff; stroke-linecap: round"/>
     </g>
     <g id="text_6">
      <!-- 2010 -->
      <g style="fill: #262626" transform="translate(525.304478 337.773594) scale(0.11 -0.11)">
       <use xlink:href="#ArialMT-32"/>
       <use xlink:href="#ArialMT-30" x="55.615234"/>
       <use xlink:href="#ArialMT-31" x="111.230469"/>
       <use xlink:href="#ArialMT-30" x="166.845703"/>
      </g>
     </g>
    </g>
    <g id="xtick_7">
     <g id="line2d_7">
      <path d="M 623.274776 320.4 
L 623.274776 43.2 
" clip-path="url(#p21d6122772)" style="fill: none; stroke: #ffffff; stroke-linecap: round"/>
     </g>
     <g id="text_7">
      <!-- 2015 -->
      <g style="fill: #262626" transform="translate(611.040713 337.773594) scale(0.11 -0.11)">
       <use xlink:href="#ArialMT-32"/>
       <use xlink:href="#ArialMT-30" x="55.615234"/>
       <use xlink:href="#ArialMT-31" x="111.230469"/>
       <use xlink:href="#ArialMT-35" x="166.845703"/>
      </g>
     </g>
    </g>
    <g id="xtick_8">
     <g id="line2d_8">
      <path d="M 709.011012 320.4 
L 709.011012 43.2 
" clip-path="url(#p21d6122772)" style="fill: none; stroke: #ffffff; stroke-linecap: round"/>
     </g>
     <g id="text_8">
      <!-- 2020 -->
      <g style="fill: #262626" transform="translate(696.776949 337.773594) scale(0.11 -0.11)">
       <use xlink:href="#ArialMT-32"/>
       <use xlink:href="#ArialMT-30" x="55.615234"/>
       <use xlink:href="#ArialMT-32" x="111.230469"/>
       <use xlink:href="#ArialMT-30" x="166.845703"/>
      </g>
     </g>
    </g>
    <g id="text_9">
     <!-- Year -->
     <g style="fill: #262626" transform="translate(428.653437 353.980781) scale(0.14 -0.14)">
      <defs>
       <path id="ArialMT-59" d="M 1784 0 
L 1784 1941 
L 19 4581 
L 756 4581 
L 1659 3200 
Q 1909 2813 2125 2425 
Q 2331 2784 2625 3234 
L 3513 4581 
L 4219 4581 
L 2391 1941 
L 2391 0 
L 1784 0 
z
" transform="scale(0.015625)"/>
       <path id="ArialMT-65" d="M 2694 1069 
L 3275 997 
Q 3138 488 2766 206 
Q 2394 -75 1816 -75 
Q 1088 -75 661 373 
Q 234 822 234 1631 
Q 234 2469 665 2931 
Q 1097 3394 1784 3394 
Q 2450 3394 2872 2941 
Q 3294 2488 3294 1666 
Q 3294 1616 3291 1516 
L 816 1516 
Q 847 969 1125 678 
Q 1403 388 1819 388 
Q 2128 388 2347 550 
Q 2566 713 2694 1069 
z
M 847 1978 
L 2700 1978 
Q 2663 2397 2488 2606 
Q 2219 2931 1791 2931 
Q 1403 2931 1139 2672 
Q 875 2413 847 1978 
z
" transform="scale(0.015625)"/>
       <path id="ArialMT-61" d="M 2588 409 
Q 2275 144 1986 34 
Q 1697 -75 1366 -75 
Q 819 -75 525 192 
Q 231 459 231 875 
Q 231 1119 342 1320 
Q 453 1522 633 1644 
Q 813 1766 1038 1828 
Q 1203 1872 1538 1913 
Q 2219 1994 2541 2106 
Q 2544 2222 2544 2253 
Q 2544 2597 2384 2738 
Q 2169 2928 1744 2928 
Q 1347 2928 1158 2789 
Q 969 2650 878 2297 
L 328 2372 
Q 403 2725 575 2942 
Q 747 3159 1072 3276 
Q 1397 3394 1825 3394 
Q 2250 3394 2515 3294 
Q 2781 3194 2906 3042 
Q 3031 2891 3081 2659 
Q 3109 2516 3109 2141 
L 3109 1391 
Q 3109 606 3145 398 
Q 3181 191 3288 0 
L 2700 0 
Q 2613 175 2588 409 
z
M 2541 1666 
Q 2234 1541 1622 1453 
Q 1275 1403 1131 1340 
Q 988 1278 909 1158 
Q 831 1038 831 891 
Q 831 666 1001 516 
Q 1172 366 1500 366 
Q 1825 366 2078 508 
Q 2331 650 2450 897 
Q 2541 1088 2541 1459 
L 2541 1666 
z
" transform="scale(0.015625)"/>
       <path id="ArialMT-72" d="M 416 0 
L 416 3319 
L 922 3319 
L 922 2816 
Q 1116 3169 1280 3281 
Q 1444 3394 1641 3394 
Q 1925 3394 2219 3213 
L 2025 2691 
Q 1819 2813 1613 2813 
Q 1428 2813 1281 2702 
Q 1134 2591 1072 2394 
Q 978 2094 978 1738 
L 978 0 
L 416 0 
z
" transform="scale(0.015625)"/>
      </defs>
      <use xlink:href="#ArialMT-59"/>
      <use xlink:href="#ArialMT-65" x="57.574219"/>
      <use xlink:href="#ArialMT-61" x="113.189453"/>
      <use xlink:href="#ArialMT-72" x="168.804688"/>
     </g>
    </g>
   </g>
   <g id="matplotlib.axis_2">
    <g id="ytick_1">
     <g id="line2d_9">
      <path d="M 108 320.4 
L 777.6 320.4 
" clip-path="url(#p21d6122772)" style="fill: none; stroke: #ffffff; stroke-linecap: round"/>
     </g>
     <g id="text_10">
      <!-- −0.002 -->
      <g style="fill: #262626" transform="translate(64.55125 324.336797) scale(0.11 -0.11)">
       <defs>
        <path id="ArialMT-2212" d="M 3381 1997 
L 356 1997 
L 356 2522 
L 3381 2522 
L 3381 1997 
z
" transform="scale(0.015625)"/>
        <path id="ArialMT-2e" d="M 581 0 
L 581 641 
L 1222 641 
L 1222 0 
L 581 0 
z
" transform="scale(0.015625)"/>
       </defs>
       <use xlink:href="#ArialMT-2212"/>
       <use xlink:href="#ArialMT-30" x="58.398438"/>
       <use xlink:href="#ArialMT-2e" x="114.013672"/>
       <use xlink:href="#ArialMT-30" x="141.796875"/>
       <use xlink:href="#ArialMT-30" x="197.412109"/>
       <use xlink:href="#ArialMT-32" x="253.027344"/>
      </g>
     </g>
    </g>
    <g id="ytick_2">
     <g id="line2d_10">
      <path d="M 108 285.75 
L 777.6 285.75 
" clip-path="url(#p21d6122772)" style="fill: none; stroke: #ffffff; stroke-linecap: round"/>
     </g>
     <g id="text_11">
      <!-- −0.001 -->
      <g style="fill: #262626" transform="translate(64.55125 289.686797) scale(0.11 -0.11)">
       <use xlink:href="#ArialMT-2212"/>
       <use xlink:href="#ArialMT-30" x="58.398438"/>
       <use xlink:href="#ArialMT-2e" x="114.013672"/>
       <use xlink:href="#ArialMT-30" x="141.796875"/>
       <use xlink:href="#ArialMT-30" x="197.412109"/>
       <use xlink:href="#ArialMT-31" x="253.027344"/>
      </g>
     </g>
    </g>
    <g id="ytick_3">
     <g id="line2d_11">
      <path d="M 108 251.1 
L 777.6 251.1 
" clip-path="url(#p21d6122772)" style="fill: none; stroke: #ffffff; stroke-linecap: round"/>
     </g>
     <g id="text_12">
      <!-- 0.000 -->
      <g style="fill: #262626" transform="translate(70.975938 255.036797) scale(0.11 -0.11)">
       <use xlink:href="#ArialMT-30"/>
       <use xlink:href="#ArialMT-2e" x="55.615234"/>
       <use xlink:href="#ArialMT-30" x="83.398438"/>
       <use xlink:href="#ArialMT-30" x="139.013672"/>
       <use xlink:href="#ArialMT-30" x="194.628906"/>
      </g>
     </g>
    </g>
    <g id="ytick_4">
     <g id="line2d_12">
      <path d="M 108 216.45 
L 777.6 216.45 
" clip-path="url(#p21d6122772)" style="fill: none; stroke: #ffffff; stroke-linecap: round"/>
     </g>
     <g id="text_13">
      <!-- 0.001 -->
      <g style="fill: #262626" transform="translate(70.975938 220.386797) scale(0.11 -0.11)">
       <use xlink:href="#ArialMT-30"/>
       <use xlink:href="#ArialMT-2e" x="55.615234"/>
       <use xlink:href="#ArialMT-30" x="83.398438"/>
       <use xlink:href="#ArialMT-30" x="139.013672"/>
       <use xlink:href="#ArialMT-31" x="194.628906"/>
      </g>
     </g>
    </g>
    <g id="ytick_5">
     <g id="line2d_13">
      <path d="M 108 181.8 
L 777.6 181.8 
" clip-path="url(#p21d6122772)" style="fill: none; stroke: #ffffff; stroke-linecap: round"/>
     </g>
     <g id="text_14">
      <!-- 0.002 -->
      <g style="fill: #262626" transform="translate(70.975938 185.736797) scale(0.11 -0.11)">
       <use xlink:href="#ArialMT-30"/>
       <use xlink:href="#ArialMT-2e" x="55.615234"/>
       <use xlink:href="#ArialMT-30" x="83.398438"/>
       <use xlink:href="#ArialMT-30" x="139.013672"/>
       <use xlink:href="#ArialMT-32" x="194.628906"/>
      </g>
     </g>
    </g>
    <g id="ytick_6">
     <g id="line2d_14">
      <path d="M 108 147.15 
L 777.6 147.15 
" clip-path="url(#p21d6122772)" style="fill: none; stroke: #ffffff; stroke-linecap: round"/>
     </g>
     <g id="text_15">
      <!-- 0.003 -->
      <g style="fill: #262626" transform="translate(70.975938 151.086797) scale(0.11 -0.11)">
       <defs>
        <path id="ArialMT-33" d="M 269 1209 
L 831 1284 
Q 928 806 1161 595 
Q 1394 384 1728 384 
Q 2125 384 2398 659 
Q 2672 934 2672 1341 
Q 2672 1728 2419 1979 
Q 2166 2231 1775 2231 
Q 1616 2231 1378 2169 
L 1441 2663 
Q 1497 2656 1531 2656 
Q 1891 2656 2178 2843 
Q 2466 3031 2466 3422 
Q 2466 3731 2256 3934 
Q 2047 4138 1716 4138 
Q 1388 4138 1169 3931 
Q 950 3725 888 3313 
L 325 3413 
Q 428 3978 793 4289 
Q 1159 4600 1703 4600 
Q 2078 4600 2393 4439 
Q 2709 4278 2876 4000 
Q 3044 3722 3044 3409 
Q 3044 3113 2884 2869 
Q 2725 2625 2413 2481 
Q 2819 2388 3044 2092 
Q 3269 1797 3269 1353 
Q 3269 753 2831 336 
Q 2394 -81 1725 -81 
Q 1122 -81 723 278 
Q 325 638 269 1209 
z
" transform="scale(0.015625)"/>
       </defs>
       <use xlink:href="#ArialMT-30"/>
       <use xlink:href="#ArialMT-2e" x="55.615234"/>
       <use xlink:href="#ArialMT-30" x="83.398438"/>
       <use xlink:href="#ArialMT-30" x="139.013672"/>
       <use xlink:href="#ArialMT-33" x="194.628906"/>
      </g>
     </g>
    </g>
    <g id="ytick_7">
     <g id="line2d_15">
      <path d="M 108 112.5 
L 777.6 112.5 
" clip-path="url(#p21d6122772)" style="fill: none; stroke: #ffffff; stroke-linecap: round"/>
     </g>
     <g id="text_16">
      <!-- 0.004 -->
      <g style="fill: #262626" transform="translate(70.975938 116.436797) scale(0.11 -0.11)">
       <defs>
        <path id="ArialMT-34" d="M 2069 0 
L 2069 1097 
L 81 1097 
L 81 1613 
L 2172 4581 
L 2631 4581 
L 2631 1613 
L 3250 1613 
L 3250 1097 
L 2631 1097 
L 2631 0 
L 2069 0 
z
M 2069 1613 
L 2069 3678 
L 634 1613 
L 2069 1613 
z
" transform="scale(0.015625)"/>
       </defs>
       <use xlink:href="#ArialMT-30"/>
       <use xlink:href="#ArialMT-2e" x="55.615234"/>
       <use xlink:href="#ArialMT-30" x="83.398438"/>
       <use xlink:href="#ArialMT-30" x="139.013672"/>
       <use xlink:href="#ArialMT-34" x="194.628906"/>
      </g>
     </g>
    </g>
    <g id="ytick_8">
     <g id="line2d_16">
      <path d="M 108 77.85 
L 777.6 77.85 
" clip-path="url(#p21d6122772)" style="fill: none; stroke: #ffffff; stroke-linecap: round"/>
     </g>
     <g id="text_17">
      <!-- 0.005 -->
      <g style="fill: #262626" transform="translate(70.975938 81.786797) scale(0.11 -0.11)">
       <use xlink:href="#ArialMT-30"/>
       <use xlink:href="#ArialMT-2e" x="55.615234"/>
       <use xlink:href="#ArialMT-30" x="83.398438"/>
       <use xlink:href="#ArialMT-30" x="139.013672"/>
       <use xlink:href="#ArialMT-35" x="194.628906"/>
      </g>
     </g>
    </g>
    <g id="ytick_9">
     <g id="line2d_17">
      <path d="M 108 43.2 
L 777.6 43.2 
" clip-path="url(#p21d6122772)" style="fill: none; stroke: #ffffff; stroke-linecap: round"/>
     </g>
     <g id="text_18">
      <!-- 0.006 -->
      <g style="fill: #262626" transform="translate(70.975938 47.136797) scale(0.11 -0.11)">
       <defs>
        <path id="ArialMT-36" d="M 3184 3459 
L 2625 3416 
Q 2550 3747 2413 3897 
Q 2184 4138 1850 4138 
Q 1581 4138 1378 3988 
Q 1113 3794 959 3422 
Q 806 3050 800 2363 
Q 1003 2672 1297 2822 
Q 1591 2972 1913 2972 
Q 2475 2972 2870 2558 
Q 3266 2144 3266 1488 
Q 3266 1056 3080 686 
Q 2894 316 2569 119 
Q 2244 -78 1831 -78 
Q 1128 -78 684 439 
Q 241 956 241 2144 
Q 241 3472 731 4075 
Q 1159 4600 1884 4600 
Q 2425 4600 2770 4297 
Q 3116 3994 3184 3459 
z
M 888 1484 
Q 888 1194 1011 928 
Q 1134 663 1356 523 
Q 1578 384 1822 384 
Q 2178 384 2434 671 
Q 2691 959 2691 1453 
Q 2691 1928 2437 2201 
Q 2184 2475 1800 2475 
Q 1419 2475 1153 2201 
Q 888 1928 888 1484 
z
" transform="scale(0.015625)"/>
       </defs>
       <use xlink:href="#ArialMT-30"/>
       <use xlink:href="#ArialMT-2e" x="55.615234"/>
       <use xlink:href="#ArialMT-30" x="83.398438"/>
       <use xlink:href="#ArialMT-30" x="139.013672"/>
       <use xlink:href="#ArialMT-36" x="194.628906"/>
      </g>
     </g>
    </g>
    <g id="text_19">
     <!-- Normalized Sentiment Score -->
     <g style="fill: #262626" transform="translate(57.76875 270.888125) rotate(-90) scale(0.14 -0.14)">
      <defs>
       <path id="ArialMT-4e" d="M 488 0 
L 488 4581 
L 1109 4581 
L 3516 984 
L 3516 4581 
L 4097 4581 
L 4097 0 
L 3475 0 
L 1069 3600 
L 1069 0 
L 488 0 
z
" transform="scale(0.015625)"/>
       <path id="ArialMT-6f" d="M 213 1659 
Q 213 2581 725 3025 
Q 1153 3394 1769 3394 
Q 2453 3394 2887 2945 
Q 3322 2497 3322 1706 
Q 3322 1066 3130 698 
Q 2938 331 2570 128 
Q 2203 -75 1769 -75 
Q 1072 -75 642 372 
Q 213 819 213 1659 
z
M 791 1659 
Q 791 1022 1069 705 
Q 1347 388 1769 388 
Q 2188 388 2466 706 
Q 2744 1025 2744 1678 
Q 2744 2294 2464 2611 
Q 2184 2928 1769 2928 
Q 1347 2928 1069 2612 
Q 791 2297 791 1659 
z
" transform="scale(0.015625)"/>
       <path id="ArialMT-6d" d="M 422 0 
L 422 3319 
L 925 3319 
L 925 2853 
Q 1081 3097 1340 3245 
Q 1600 3394 1931 3394 
Q 2300 3394 2536 3241 
Q 2772 3088 2869 2813 
Q 3263 3394 3894 3394 
Q 4388 3394 4653 3120 
Q 4919 2847 4919 2278 
L 4919 0 
L 4359 0 
L 4359 2091 
Q 4359 2428 4304 2576 
Q 4250 2725 4106 2815 
Q 3963 2906 3769 2906 
Q 3419 2906 3187 2673 
Q 2956 2441 2956 1928 
L 2956 0 
L 2394 0 
L 2394 2156 
Q 2394 2531 2256 2718 
Q 2119 2906 1806 2906 
Q 1569 2906 1367 2781 
Q 1166 2656 1075 2415 
Q 984 2175 984 1722 
L 984 0 
L 422 0 
z
" transform="scale(0.015625)"/>
       <path id="ArialMT-6c" d="M 409 0 
L 409 4581 
L 972 4581 
L 972 0 
L 409 0 
z
" transform="scale(0.015625)"/>
       <path id="ArialMT-69" d="M 425 3934 
L 425 4581 
L 988 4581 
L 988 3934 
L 425 3934 
z
M 425 0 
L 425 3319 
L 988 3319 
L 988 0 
L 425 0 
z
" transform="scale(0.015625)"/>
       <path id="ArialMT-7a" d="M 125 0 
L 125 456 
L 2238 2881 
Q 1878 2863 1603 2863 
L 250 2863 
L 250 3319 
L 2963 3319 
L 2963 2947 
L 1166 841 
L 819 456 
Q 1197 484 1528 484 
L 3063 484 
L 3063 0 
L 125 0 
z
" transform="scale(0.015625)"/>
       <path id="ArialMT-64" d="M 2575 0 
L 2575 419 
Q 2259 -75 1647 -75 
Q 1250 -75 917 144 
Q 584 363 401 755 
Q 219 1147 219 1656 
Q 219 2153 384 2558 
Q 550 2963 881 3178 
Q 1213 3394 1622 3394 
Q 1922 3394 2156 3267 
Q 2391 3141 2538 2938 
L 2538 4581 
L 3097 4581 
L 3097 0 
L 2575 0 
z
M 797 1656 
Q 797 1019 1065 703 
Q 1334 388 1700 388 
Q 2069 388 2326 689 
Q 2584 991 2584 1609 
Q 2584 2291 2321 2609 
Q 2059 2928 1675 2928 
Q 1300 2928 1048 2622 
Q 797 2316 797 1656 
z
" transform="scale(0.015625)"/>
       <path id="ArialMT-20" transform="scale(0.015625)"/>
       <path id="ArialMT-53" d="M 288 1472 
L 859 1522 
Q 900 1178 1048 958 
Q 1197 738 1509 602 
Q 1822 466 2213 466 
Q 2559 466 2825 569 
Q 3091 672 3220 851 
Q 3350 1031 3350 1244 
Q 3350 1459 3225 1620 
Q 3100 1781 2813 1891 
Q 2628 1963 1997 2114 
Q 1366 2266 1113 2400 
Q 784 2572 623 2826 
Q 463 3081 463 3397 
Q 463 3744 659 4045 
Q 856 4347 1234 4503 
Q 1613 4659 2075 4659 
Q 2584 4659 2973 4495 
Q 3363 4331 3572 4012 
Q 3781 3694 3797 3291 
L 3216 3247 
Q 3169 3681 2898 3903 
Q 2628 4125 2100 4125 
Q 1550 4125 1298 3923 
Q 1047 3722 1047 3438 
Q 1047 3191 1225 3031 
Q 1400 2872 2139 2705 
Q 2878 2538 3153 2413 
Q 3553 2228 3743 1945 
Q 3934 1663 3934 1294 
Q 3934 928 3725 604 
Q 3516 281 3123 101 
Q 2731 -78 2241 -78 
Q 1619 -78 1198 103 
Q 778 284 539 648 
Q 300 1013 288 1472 
z
" transform="scale(0.015625)"/>
       <path id="ArialMT-6e" d="M 422 0 
L 422 3319 
L 928 3319 
L 928 2847 
Q 1294 3394 1984 3394 
Q 2284 3394 2536 3286 
Q 2788 3178 2913 3003 
Q 3038 2828 3088 2588 
Q 3119 2431 3119 2041 
L 3119 0 
L 2556 0 
L 2556 2019 
Q 2556 2363 2490 2533 
Q 2425 2703 2258 2804 
Q 2091 2906 1866 2906 
Q 1506 2906 1245 2678 
Q 984 2450 984 1813 
L 984 0 
L 422 0 
z
" transform="scale(0.015625)"/>
       <path id="ArialMT-74" d="M 1650 503 
L 1731 6 
Q 1494 -44 1306 -44 
Q 1000 -44 831 53 
Q 663 150 594 308 
Q 525 466 525 972 
L 525 2881 
L 113 2881 
L 113 3319 
L 525 3319 
L 525 4141 
L 1084 4478 
L 1084 3319 
L 1650 3319 
L 1650 2881 
L 1084 2881 
L 1084 941 
Q 1084 700 1114 631 
Q 1144 563 1211 522 
Q 1278 481 1403 481 
Q 1497 481 1650 503 
z
" transform="scale(0.015625)"/>
       <path id="ArialMT-63" d="M 2588 1216 
L 3141 1144 
Q 3050 572 2676 248 
Q 2303 -75 1759 -75 
Q 1078 -75 664 370 
Q 250 816 250 1647 
Q 250 2184 428 2587 
Q 606 2991 970 3192 
Q 1334 3394 1763 3394 
Q 2303 3394 2647 3120 
Q 2991 2847 3088 2344 
L 2541 2259 
Q 2463 2594 2264 2762 
Q 2066 2931 1784 2931 
Q 1359 2931 1093 2626 
Q 828 2322 828 1663 
Q 828 994 1084 691 
Q 1341 388 1753 388 
Q 2084 388 2306 591 
Q 2528 794 2588 1216 
z
" transform="scale(0.015625)"/>
      </defs>
      <use xlink:href="#ArialMT-4e"/>
      <use xlink:href="#ArialMT-6f" x="72.216797"/>
      <use xlink:href="#ArialMT-72" x="127.832031"/>
      <use xlink:href="#ArialMT-6d" x="161.132812"/>
      <use xlink:href="#ArialMT-61" x="244.433594"/>
      <use xlink:href="#ArialMT-6c" x="300.048828"/>
      <use xlink:href="#ArialMT-69" x="322.265625"/>
      <use xlink:href="#ArialMT-7a" x="344.482422"/>
      <use xlink:href="#ArialMT-65" x="394.482422"/>
      <use xlink:href="#ArialMT-64" x="450.097656"/>
      <use xlink:href="#ArialMT-20" x="505.712891"/>
      <use xlink:href="#ArialMT-53" x="533.496094"/>
      <use xlink:href="#ArialMT-65" x="600.195312"/>
      <use xlink:href="#ArialMT-6e" x="655.810547"/>
      <use xlink:href="#ArialMT-74" x="711.425781"/>
      <use xlink:href="#ArialMT-69" x="739.208984"/>
      <use xlink:href="#ArialMT-6d" x="761.425781"/>
      <use xlink:href="#ArialMT-65" x="844.726562"/>
      <use xlink:href="#ArialMT-6e" x="900.341797"/>
      <use xlink:href="#ArialMT-74" x="955.957031"/>
      <use xlink:href="#ArialMT-20" x="983.740234"/>
      <use xlink:href="#ArialMT-53" x="1011.523438"/>
      <use xlink:href="#ArialMT-63" x="1078.222656"/>
      <use xlink:href="#ArialMT-6f" x="1128.222656"/>
      <use xlink:href="#ArialMT-72" x="1183.837891"/>
      <use xlink:href="#ArialMT-65" x="1217.138672"/>
     </g>
    </g>
   </g>
   <g id="PolyCollection_1"/>
   <g id="PolyCollection_2"/>
   <g id="PolyCollection_3"/>
   <g id="PolyCollection_4"/>
   <g id="PolyCollection_5"/>
   <g id="PolyCollection_6"/>
   <g id="PolyCollection_7"/>
   <g id="PolyCollection_8"/>
   <g id="PolyCollection_9"/>
   <g id="line2d_18">
    <path d="M 23.121127 229.239421 
L 40.268374 172.387458 
L 50.398915 -1 
M 63.918193 -1 
L 74.562868 195.591862 
L 91.710115 230.054865 
L 108.857362 222.1897 
L 126.004609 185.551108 
L 143.151857 213.411808 
L 160.299104 212.777052 
L 177.446351 212.727087 
L 194.593598 189.657555 
L 211.740845 172.7906 
L 228.888092 198.856488 
L 246.035339 212.075071 
L 263.182586 176.987804 
L 280.329834 179.994329 
L 297.477081 147.039837 
L 314.624328 171.740365 
L 331.771575 169.630333 
L 348.918822 189.466668 
L 366.066069 170.226795 
L 383.213316 168.75692 
L 400.360563 169.926215 
L 417.50781 171.548592 
L 434.655058 175.420532 
L 451.802305 167.621317 
L 468.949552 185.658501 
L 486.096799 168.564088 
L 503.244046 152.271656 
L 520.391293 188.630474 
L 537.53854 188.370791 
L 554.685787 171.929566 
L 571.833035 170.256923 
L 588.980282 158.354556 
L 606.127529 165.615029 
L 623.274776 160.423592 
L 640.422023 179.011935 
L 657.56927 180.676389 
L 674.716517 167.271505 
L 691.863764 164.748481 
L 709.011012 170.260385 
L 726.158259 147.159263 
L 743.305506 177.158305 
L 760.452753 144.982003 
" clip-path="url(#p21d6122772)" style="fill: none; stroke: #4c72b0; stroke-width: 1.5; stroke-linecap: round"/>
   </g>
   <g id="line2d_19">
    <path d="M 23.121127 227.845896 
L 40.268374 181.944246 
L 57.415621 81.383843 
L 64.254777 -1 
M 80.880377 -1 
L 91.710115 211.85793 
L 108.857362 215.784894 
L 126.004609 221.342444 
L 143.151857 223.609125 
L 160.299104 222.411992 
L 177.446351 214.435367 
L 194.593598 203.62166 
L 211.740845 194.601261 
L 228.888092 199.247964 
L 246.035339 224.223171 
L 263.182586 217.33088 
L 280.329834 200.911476 
L 297.477081 190.008618 
L 314.624328 184.525037 
L 331.771575 200.784819 
L 348.918822 218.283702 
L 366.066069 209.814402 
L 383.213316 196.509716 
L 400.360563 202.275586 
L 417.50781 190.867785 
L 434.655058 209.85164 
L 451.802305 197.592303 
L 468.949552 214.420006 
L 486.096799 202.68418 
L 503.244046 172.290648 
L 520.391293 176.293363 
L 537.53854 209.664413 
L 554.685787 182.781941 
L 571.833035 180.339644 
L 588.980282 175.885546 
L 606.127529 186.971805 
L 623.274776 189.579726 
L 640.422023 192.973699 
L 657.56927 213.998414 
L 674.716517 196.065033 
L 691.863764 196.210414 
L 709.011012 199.372573 
L 726.158259 157.575098 
L 743.305506 195.906816 
L 760.452753 173.107463 
" clip-path="url(#p21d6122772)" style="fill: none; stroke: #dd8452; stroke-width: 1.5; stroke-linecap: round"/>
   </g>
   <g id="line2d_20">
    <path d="M 23.121127 239.965874 
L 40.268374 215.482579 
L 52.77958 -1 
M 61.837176 -1 
L 74.562868 229.875271 
L 91.710115 241.601467 
L 108.857362 238.794135 
L 126.004609 223.805856 
L 143.151857 225.262748 
L 160.299104 216.453222 
L 177.446351 227.727928 
L 194.593598 221.481971 
L 211.740845 215.403097 
L 228.888092 206.46293 
L 246.035339 222.06441 
L 263.182586 187.773751 
L 280.329834 191.450801 
L 297.477081 192.797893 
L 314.624328 205.956566 
L 331.771575 197.090081 
L 348.918822 211.349767 
L 366.066069 188.443513 
L 383.213316 196.059785 
L 400.360563 201.464189 
L 417.50781 187.457455 
L 434.655058 203.591757 
L 451.802305 189.195509 
L 468.949552 216.064851 
L 486.096799 192.445451 
L 503.244046 190.134749 
L 520.391293 195.645615 
L 537.53854 204.991987 
L 554.685787 196.329468 
L 571.833035 197.780432 
L 588.980282 183.905577 
L 606.127529 197.638712 
L 623.274776 205.199359 
L 640.422023 212.852246 
L 657.56927 204.286362 
L 674.716517 194.028152 
L 691.863764 200.335676 
L 709.011012 197.323837 
L 726.158259 190.880034 
L 743.305506 199.131793 
L 760.452753 181.808954 
" clip-path="url(#p21d6122772)" style="fill: none; stroke: #55a868; stroke-width: 1.5; stroke-linecap: round"/>
   </g>
   <g id="line2d_21">
    <path d="M 23.121127 222.543408 
L 40.268374 189.577087 
L 51.071029 -1 
M 79.477837 -1 
L 91.710115 228.014656 
L 108.857362 227.323599 
L 126.004609 207.229506 
L 143.151857 215.04014 
L 160.299104 215.001781 
L 177.446351 206.395188 
L 194.593598 201.234271 
L 211.740845 177.62836 
L 228.888092 183.732051 
L 246.035339 204.896559 
L 263.182586 166.723334 
L 280.329834 163.177344 
L 297.477081 140.953484 
L 314.624328 160.441562 
L 331.771575 160.118682 
L 348.918822 178.61592 
L 366.066069 180.975947 
L 383.213316 167.602858 
L 400.360563 168.005938 
L 417.50781 154.251348 
L 434.655058 155.723204 
L 451.802305 172.514873 
L 468.949552 172.904017 
L 486.096799 155.434217 
L 503.244046 139.203529 
L 520.391293 178.269149 
L 537.53854 181.352682 
L 554.685787 167.184408 
L 571.833035 157.271058 
L 588.980282 162.591187 
L 606.127529 155.156778 
L 623.274776 147.839719 
L 640.422023 176.868638 
L 657.56927 172.87328 
L 674.716517 155.955679 
L 691.863764 164.90792 
L 709.011012 161.897294 
L 726.158259 117.071186 
L 743.305506 171.660081 
L 760.452753 147.317392 
" clip-path="url(#p21d6122772)" style="fill: none; stroke: #c44e52; stroke-width: 1.5; stroke-linecap: round"/>
   </g>
   <g id="line2d_22">
    <path d="M 23.121127 225.245802 
L 40.268374 163.862747 
L 57.415621 7.881295 
L 74.562868 145.199358 
L 91.710115 199.461234 
L 108.857362 198.752771 
L 126.004609 207.941708 
L 143.151857 223.659342 
L 160.299104 220.280464 
L 177.446351 215.033649 
L 194.593598 193.097741 
L 211.740845 190.970006 
L 228.888092 186.823994 
L 246.035339 214.282745 
L 263.182586 210.993997 
L 280.329834 147.783554 
L 297.477081 167.421203 
L 314.624328 174.956753 
L 331.771575 197.68701 
L 348.918822 207.404035 
L 366.066069 164.998225 
L 383.213316 184.563405 
L 400.360563 191.079501 
L 417.50781 179.805181 
L 434.655058 160.697431 
L 451.802305 184.025135 
L 468.949552 209.425951 
L 486.096799 198.636319 
L 503.244046 168.59549 
L 520.391293 159.79138 
L 537.53854 203.279382 
L 554.685787 168.717421 
L 571.833035 171.802368 
L 588.980282 157.918809 
L 606.127529 168.930344 
L 623.274776 175.543454 
L 640.422023 180.443317 
L 657.56927 207.906578 
L 674.716517 180.831634 
L 691.863764 183.384341 
L 709.011012 189.894182 
L 726.158259 147.240807 
L 743.305506 186.336197 
L 760.452753 172.360066 
" clip-path="url(#p21d6122772)" style="fill: none; stroke: #8172b3; stroke-width: 1.5; stroke-linecap: round"/>
   </g>
   <g id="line2d_23">
    <path d="M 23.121127 240.616806 
L 40.268374 216.491778 
L 56.338701 -1 
M 58.620194 -1 
L 74.562868 191.898719 
L 91.710115 231.197871 
L 108.857362 221.872972 
L 126.004609 218.008064 
L 143.151857 224.224072 
L 160.299104 216.779053 
L 177.446351 215.660013 
L 194.593598 206.001709 
L 211.740845 201.556191 
L 228.888092 202.499813 
L 246.035339 204.304241 
L 263.182586 191.32736 
L 280.329834 168.434261 
L 297.477081 156.251063 
L 314.624328 170.585232 
L 331.771575 178.790639 
L 348.918822 191.883764 
L 366.066069 190.245663 
L 383.213316 180.471954 
L 400.360563 183.493323 
L 417.50781 171.444997 
L 434.655058 162.519052 
L 451.802305 177.50211 
L 468.949552 185.814487 
L 486.096799 174.08449 
L 503.244046 171.893805 
L 520.391293 186.944048 
L 537.53854 192.218055 
L 554.685787 184.166175 
L 571.833035 173.292411 
L 588.980282 178.685041 
L 606.127529 182.547012 
L 623.274776 179.821964 
L 640.422023 191.033319 
L 657.56927 185.856792 
L 674.716517 181.028262 
L 691.863764 192.888407 
L 709.011012 181.102998 
L 726.158259 144.118125 
L 743.305506 178.203659 
L 760.452753 171.400287 
" clip-path="url(#p21d6122772)" style="fill: none; stroke: #937860; stroke-width: 1.5; stroke-linecap: round"/>
   </g>
   <g id="line2d_24">
    <path d="M 23.121127 234.421022 
L 40.268374 204.785193 
L 55.426502 -1 
M 59.387088 -1 
L 74.562868 206.869601 
L 91.710115 239.325586 
L 108.857362 227.354039 
L 126.004609 233.916442 
L 143.151857 229.115868 
L 160.299104 234.741574 
L 177.446351 231.21339 
L 194.593598 228.703169 
L 211.740845 207.270327 
L 228.888092 205.606858 
L 246.035339 226.904474 
L 263.182586 222.444651 
L 280.329834 194.423085 
L 297.477081 199.060865 
L 314.624328 195.872028 
L 331.771575 212.882328 
L 348.918822 224.140607 
L 366.066069 220.489553 
L 383.213316 202.536355 
L 400.360563 213.618193 
L 417.50781 199.835542 
L 434.655058 210.54317 
L 451.802305 218.135629 
L 468.949552 225.335713 
L 486.096799 209.534934 
L 503.244046 184.013933 
L 520.391293 208.021358 
L 537.53854 221.805386 
L 554.685787 197.121539 
L 571.833035 193.804766 
L 588.980282 202.305221 
L 606.127529 207.521515 
L 623.274776 201.306583 
L 640.422023 206.695805 
L 657.56927 217.061697 
L 674.716517 207.069885 
L 691.863764 212.553538 
L 709.011012 212.407117 
L 726.158259 183.510581 
L 743.305506 221.106735 
L 760.452753 219.365186 
" clip-path="url(#p21d6122772)" style="fill: none; stroke: #da8bc3; stroke-width: 1.5; stroke-linecap: round"/>
   </g>
   <g id="line2d_25">
    <path d="M 23.121127 230.865662 
L 40.268374 165.724181 
L 57.415621 129.402976 
L 74.562868 97.037839 
L 91.710115 213.070956 
L 108.857362 200.164903 
L 126.004609 210.899402 
L 143.151857 215.782565 
L 160.299104 209.064662 
L 177.446351 204.882636 
L 194.593598 193.615788 
L 211.740845 199.356297 
L 228.888092 197.352058 
L 246.035339 213.47177 
L 263.182586 198.479462 
L 280.329834 172.496519 
L 297.477081 159.579992 
L 314.624328 172.928161 
L 331.771575 193.270642 
L 348.918822 206.548167 
L 366.066069 197.462277 
L 383.213316 179.920107 
L 400.360563 197.489749 
L 417.50781 179.810415 
L 434.655058 202.764985 
L 451.802305 186.125498 
L 468.949552 206.404129 
L 486.096799 193.782337 
L 503.244046 158.884041 
L 520.391293 175.132279 
L 537.53854 202.648774 
L 554.685787 165.622458 
L 571.833035 171.170094 
L 588.980282 156.972898 
L 606.127529 166.262013 
L 623.274776 174.91362 
L 640.422023 183.671325 
L 657.56927 200.731288 
L 674.716517 182.812939 
L 691.863764 193.484064 
L 709.011012 180.137994 
L 726.158259 148.177561 
L 743.305506 185.333169 
L 760.452753 164.802675 
" clip-path="url(#p21d6122772)" style="fill: none; stroke: #8c8c8c; stroke-width: 1.5; stroke-linecap: round"/>
   </g>
   <g id="line2d_26">
    <path d="M 23.121127 257.740502 
L 40.268374 212.216737 
L 48.404243 361 
M 83.070909 361 
L 91.710115 224.67526 
L 108.857362 242.299283 
L 126.004609 282.962387 
L 143.151857 267.291408 
L 160.299104 268.210088 
L 177.446351 273.94278 
L 194.593598 255.620544 
L 211.740845 286.592335 
L 228.888092 265.700754 
L 246.035339 282.498609 
L 263.182586 316.723175 
L 280.329834 276.466492 
L 297.477081 285.097334 
L 314.624328 282.721009 
L 331.771575 306.979276 
L 348.918822 294.731088 
L 366.066069 268.61489 
L 383.213316 291.524351 
L 400.360563 298.066667 
L 417.50781 297.909964 
L 434.655058 287.700644 
L 451.802305 291.706312 
L 468.949552 297.582171 
L 486.096799 301.624091 
L 503.244046 304.259989 
L 520.391293 255.07882 
L 537.53854 299.365671 
L 554.685787 282.161944 
L 571.833035 286.916226 
L 588.980282 288.716801 
L 606.127529 273.864019 
L 623.274776 283.676668 
L 640.422023 285.995294 
L 657.56927 310.311584 
L 674.716517 299.803388 
L 691.863764 299.563416 
L 709.011012 292.754342 
L 726.158259 289.368783 
L 743.305506 273.090634 
L 760.452753 310.296108 
" clip-path="url(#p21d6122772)" style="fill: none; stroke: #ccb974; stroke-width: 1.5; stroke-linecap: round"/>
   </g>
   <g id="line2d_27"/>
   <g id="line2d_28"/>
   <g id="line2d_29"/>
   <g id="line2d_30"/>
   <g id="line2d_31"/>
   <g id="line2d_32"/>
   <g id="line2d_33"/>
   <g id="line2d_34"/>
   <g id="line2d_35"/>
   <g id="line2d_36">
    <path d="M 108 251.1 
L 777.6 251.1 
" clip-path="url(#p21d6122772)" style="fill: none; stroke: #000000; stroke-linecap: round"/>
   </g>
   <g id="line2d_37">
    <path d="M 108.857362 320.4 
L 108.857362 43.2 
" clip-path="url(#p21d6122772)" style="fill: none; stroke: #000000; stroke-linecap: round"/>
   </g>
   <g id="patch_3">
    <path d="M 108 320.4 
L 108 43.2 
" style="fill: none; stroke: #ffffff; stroke-width: 1.25; stroke-linejoin: miter; stroke-linecap: square"/>
   </g>
   <g id="patch_4">
    <path d="M 777.6 320.4 
L 777.6 43.2 
" style="fill: none; stroke: #ffffff; stroke-width: 1.25; stroke-linejoin: miter; stroke-linecap: square"/>
   </g>
   <g id="patch_5">
    <path d="M 108 320.4 
L 777.6 320.4 
" style="fill: none; stroke: #ffffff; stroke-width: 1.25; stroke-linejoin: miter; stroke-linecap: square"/>
   </g>
   <g id="patch_6">
    <path d="M 108 43.2 
L 777.6 43.2 
" style="fill: none; stroke: #ffffff; stroke-width: 1.25; stroke-linejoin: miter; stroke-linecap: square"/>
   </g>
   <g id="text_20">
    <!-- Sentiment Over Time -->
    <g style="fill: #262626" transform="translate(348.882812 37.2) scale(0.2 -0.2)">
     <defs>
      <path id="ArialMT-4f" d="M 309 2231 
Q 309 3372 921 4017 
Q 1534 4663 2503 4663 
Q 3138 4663 3647 4359 
Q 4156 4056 4423 3514 
Q 4691 2972 4691 2284 
Q 4691 1588 4409 1038 
Q 4128 488 3612 205 
Q 3097 -78 2500 -78 
Q 1853 -78 1343 234 
Q 834 547 571 1087 
Q 309 1628 309 2231 
z
M 934 2222 
Q 934 1394 1379 917 
Q 1825 441 2497 441 
Q 3181 441 3623 922 
Q 4066 1403 4066 2288 
Q 4066 2847 3877 3264 
Q 3688 3681 3323 3911 
Q 2959 4141 2506 4141 
Q 1863 4141 1398 3698 
Q 934 3256 934 2222 
z
" transform="scale(0.015625)"/>
      <path id="ArialMT-76" d="M 1344 0 
L 81 3319 
L 675 3319 
L 1388 1331 
Q 1503 1009 1600 663 
Q 1675 925 1809 1294 
L 2547 3319 
L 3125 3319 
L 1869 0 
L 1344 0 
z
" transform="scale(0.015625)"/>
      <path id="ArialMT-54" d="M 1659 0 
L 1659 4041 
L 150 4041 
L 150 4581 
L 3781 4581 
L 3781 4041 
L 2266 4041 
L 2266 0 
L 1659 0 
z
" transform="scale(0.015625)"/>
     </defs>
     <use xlink:href="#ArialMT-53"/>
     <use xlink:href="#ArialMT-65" x="66.699219"/>
     <use xlink:href="#ArialMT-6e" x="122.314453"/>
     <use xlink:href="#ArialMT-74" x="177.929688"/>
     <use xlink:href="#ArialMT-69" x="205.712891"/>
     <use xlink:href="#ArialMT-6d" x="227.929688"/>
     <use xlink:href="#ArialMT-65" x="311.230469"/>
     <use xlink:href="#ArialMT-6e" x="366.845703"/>
     <use xlink:href="#ArialMT-74" x="422.460938"/>
     <use xlink:href="#ArialMT-20" x="450.244141"/>
     <use xlink:href="#ArialMT-4f" x="478.027344"/>
     <use xlink:href="#ArialMT-76" x="555.810547"/>
     <use xlink:href="#ArialMT-65" x="605.810547"/>
     <use xlink:href="#ArialMT-72" x="661.425781"/>
     <use xlink:href="#ArialMT-20" x="694.726562"/>
     <use xlink:href="#ArialMT-54" x="720.759766"/>
     <use xlink:href="#ArialMT-69" x="778.09375"/>
     <use xlink:href="#ArialMT-6d" x="800.310547"/>
     <use xlink:href="#ArialMT-65" x="883.611328"/>
    </g>
   </g>
   <g id="legend_1">
    <g id="patch_7">
     <path d="M 129.536875 178.565312 
L 220.383125 178.565312 
Q 222.583125 178.565312 222.583125 176.365312 
L 222.583125 37.04 
Q 222.583125 34.84 220.383125 34.84 
L 129.536875 34.84 
Q 127.336875 34.84 127.336875 37.04 
L 127.336875 176.365312 
Q 127.336875 178.565312 129.536875 178.565312 
z
" style="fill: #eaeaf2; opacity: 0.3; stroke: #cccccc; stroke-linejoin: miter"/>
    </g>
    <g id="line2d_38">
     <path d="M 131.736875 43.263594 
L 142.736875 43.263594 
L 153.736875 43.263594 
" style="fill: none; stroke: #4c72b0; stroke-width: 1.5; stroke-linecap: round"/>
    </g>
    <g id="text_21">
     <!-- anger -->
     <g style="fill: #262626" transform="translate(162.536875 47.113594) scale(0.11 -0.11)">
      <defs>
       <path id="ArialMT-67" d="M 319 -275 
L 866 -356 
Q 900 -609 1056 -725 
Q 1266 -881 1628 -881 
Q 2019 -881 2231 -725 
Q 2444 -569 2519 -288 
Q 2563 -116 2559 434 
Q 2191 0 1641 0 
Q 956 0 581 494 
Q 206 988 206 1678 
Q 206 2153 378 2554 
Q 550 2956 876 3175 
Q 1203 3394 1644 3394 
Q 2231 3394 2613 2919 
L 2613 3319 
L 3131 3319 
L 3131 450 
Q 3131 -325 2973 -648 
Q 2816 -972 2473 -1159 
Q 2131 -1347 1631 -1347 
Q 1038 -1347 672 -1080 
Q 306 -813 319 -275 
z
M 784 1719 
Q 784 1066 1043 766 
Q 1303 466 1694 466 
Q 2081 466 2343 764 
Q 2606 1063 2606 1700 
Q 2606 2309 2336 2618 
Q 2066 2928 1684 2928 
Q 1309 2928 1046 2623 
Q 784 2319 784 1719 
z
" transform="scale(0.015625)"/>
      </defs>
      <use xlink:href="#ArialMT-61"/>
      <use xlink:href="#ArialMT-6e" x="55.615234"/>
      <use xlink:href="#ArialMT-67" x="111.230469"/>
      <use xlink:href="#ArialMT-65" x="166.845703"/>
      <use xlink:href="#ArialMT-72" x="222.460938"/>
     </g>
    </g>
    <g id="line2d_39">
     <path d="M 131.736875 58.952344 
L 142.736875 58.952344 
L 153.736875 58.952344 
" style="fill: none; stroke: #dd8452; stroke-width: 1.5; stroke-linecap: round"/>
    </g>
    <g id="text_22">
     <!-- anticipation -->
     <g style="fill: #262626" transform="translate(162.536875 62.802344) scale(0.11 -0.11)">
      <defs>
       <path id="ArialMT-70" d="M 422 -1272 
L 422 3319 
L 934 3319 
L 934 2888 
Q 1116 3141 1344 3267 
Q 1572 3394 1897 3394 
Q 2322 3394 2647 3175 
Q 2972 2956 3137 2557 
Q 3303 2159 3303 1684 
Q 3303 1175 3120 767 
Q 2938 359 2589 142 
Q 2241 -75 1856 -75 
Q 1575 -75 1351 44 
Q 1128 163 984 344 
L 984 -1272 
L 422 -1272 
z
M 931 1641 
Q 931 1000 1190 694 
Q 1450 388 1819 388 
Q 2194 388 2461 705 
Q 2728 1022 2728 1688 
Q 2728 2322 2467 2637 
Q 2206 2953 1844 2953 
Q 1484 2953 1207 2617 
Q 931 2281 931 1641 
z
" transform="scale(0.015625)"/>
      </defs>
      <use xlink:href="#ArialMT-61"/>
      <use xlink:href="#ArialMT-6e" x="55.615234"/>
      <use xlink:href="#ArialMT-74" x="111.230469"/>
      <use xlink:href="#ArialMT-69" x="139.013672"/>
      <use xlink:href="#ArialMT-63" x="161.230469"/>
      <use xlink:href="#ArialMT-69" x="211.230469"/>
      <use xlink:href="#ArialMT-70" x="233.447266"/>
      <use xlink:href="#ArialMT-61" x="289.0625"/>
      <use xlink:href="#ArialMT-74" x="344.677734"/>
      <use xlink:href="#ArialMT-69" x="372.460938"/>
      <use xlink:href="#ArialMT-6f" x="394.677734"/>
      <use xlink:href="#ArialMT-6e" x="450.292969"/>
     </g>
    </g>
    <g id="line2d_40">
     <path d="M 131.736875 74.512187 
L 142.736875 74.512187 
L 153.736875 74.512187 
" style="fill: none; stroke: #55a868; stroke-width: 1.5; stroke-linecap: round"/>
    </g>
    <g id="text_23">
     <!-- disgust -->
     <g style="fill: #262626" transform="translate(162.536875 78.362187) scale(0.11 -0.11)">
      <defs>
       <path id="ArialMT-73" d="M 197 991 
L 753 1078 
Q 800 744 1014 566 
Q 1228 388 1613 388 
Q 2000 388 2187 545 
Q 2375 703 2375 916 
Q 2375 1106 2209 1216 
Q 2094 1291 1634 1406 
Q 1016 1563 777 1677 
Q 538 1791 414 1992 
Q 291 2194 291 2438 
Q 291 2659 392 2848 
Q 494 3038 669 3163 
Q 800 3259 1026 3326 
Q 1253 3394 1513 3394 
Q 1903 3394 2198 3281 
Q 2494 3169 2634 2976 
Q 2775 2784 2828 2463 
L 2278 2388 
Q 2241 2644 2061 2787 
Q 1881 2931 1553 2931 
Q 1166 2931 1000 2803 
Q 834 2675 834 2503 
Q 834 2394 903 2306 
Q 972 2216 1119 2156 
Q 1203 2125 1616 2013 
Q 2213 1853 2448 1751 
Q 2684 1650 2818 1456 
Q 2953 1263 2953 975 
Q 2953 694 2789 445 
Q 2625 197 2315 61 
Q 2006 -75 1616 -75 
Q 969 -75 630 194 
Q 291 463 197 991 
z
" transform="scale(0.015625)"/>
       <path id="ArialMT-75" d="M 2597 0 
L 2597 488 
Q 2209 -75 1544 -75 
Q 1250 -75 995 37 
Q 741 150 617 320 
Q 494 491 444 738 
Q 409 903 409 1263 
L 409 3319 
L 972 3319 
L 972 1478 
Q 972 1038 1006 884 
Q 1059 663 1231 536 
Q 1403 409 1656 409 
Q 1909 409 2131 539 
Q 2353 669 2445 892 
Q 2538 1116 2538 1541 
L 2538 3319 
L 3100 3319 
L 3100 0 
L 2597 0 
z
" transform="scale(0.015625)"/>
      </defs>
      <use xlink:href="#ArialMT-64"/>
      <use xlink:href="#ArialMT-69" x="55.615234"/>
      <use xlink:href="#ArialMT-73" x="77.832031"/>
      <use xlink:href="#ArialMT-67" x="127.832031"/>
      <use xlink:href="#ArialMT-75" x="183.447266"/>
      <use xlink:href="#ArialMT-73" x="239.0625"/>
      <use xlink:href="#ArialMT-74" x="289.0625"/>
     </g>
    </g>
    <g id="line2d_41">
     <path d="M 131.736875 90.200937 
L 142.736875 90.200937 
L 153.736875 90.200937 
" style="fill: none; stroke: #c44e52; stroke-width: 1.5; stroke-linecap: round"/>
    </g>
    <g id="text_24">
     <!-- fear -->
     <g style="fill: #262626" transform="translate(162.536875 94.050937) scale(0.11 -0.11)">
      <defs>
       <path id="ArialMT-66" d="M 556 0 
L 556 2881 
L 59 2881 
L 59 3319 
L 556 3319 
L 556 3672 
Q 556 4006 616 4169 
Q 697 4388 901 4523 
Q 1106 4659 1475 4659 
Q 1713 4659 2000 4603 
L 1916 4113 
Q 1741 4144 1584 4144 
Q 1328 4144 1222 4034 
Q 1116 3925 1116 3625 
L 1116 3319 
L 1763 3319 
L 1763 2881 
L 1116 2881 
L 1116 0 
L 556 0 
z
" transform="scale(0.015625)"/>
      </defs>
      <use xlink:href="#ArialMT-66"/>
      <use xlink:href="#ArialMT-65" x="27.783203"/>
      <use xlink:href="#ArialMT-61" x="83.398438"/>
      <use xlink:href="#ArialMT-72" x="139.013672"/>
     </g>
    </g>
    <g id="line2d_42">
     <path d="M 131.736875 105.760781 
L 142.736875 105.760781 
L 153.736875 105.760781 
" style="fill: none; stroke: #8172b3; stroke-width: 1.5; stroke-linecap: round"/>
    </g>
    <g id="text_25">
     <!-- joy -->
     <g style="fill: #262626" transform="translate(162.536875 109.610781) scale(0.11 -0.11)">
      <defs>
       <path id="ArialMT-6a" d="M 419 3928 
L 419 4581 
L 981 4581 
L 981 3928 
L 419 3928 
z
M -294 -1288 
L -188 -809 
Q -19 -853 78 -853 
Q 250 -853 334 -739 
Q 419 -625 419 -169 
L 419 3319 
L 981 3319 
L 981 -181 
Q 981 -794 822 -1034 
Q 619 -1347 147 -1347 
Q -81 -1347 -294 -1288 
z
" transform="scale(0.015625)"/>
       <path id="ArialMT-79" d="M 397 -1278 
L 334 -750 
Q 519 -800 656 -800 
Q 844 -800 956 -737 
Q 1069 -675 1141 -563 
Q 1194 -478 1313 -144 
Q 1328 -97 1363 -6 
L 103 3319 
L 709 3319 
L 1400 1397 
Q 1534 1031 1641 628 
Q 1738 1016 1872 1384 
L 2581 3319 
L 3144 3319 
L 1881 -56 
Q 1678 -603 1566 -809 
Q 1416 -1088 1222 -1217 
Q 1028 -1347 759 -1347 
Q 597 -1347 397 -1278 
z
" transform="scale(0.015625)"/>
      </defs>
      <use xlink:href="#ArialMT-6a"/>
      <use xlink:href="#ArialMT-6f" x="22.216797"/>
      <use xlink:href="#ArialMT-79" x="77.832031"/>
     </g>
    </g>
    <g id="line2d_43">
     <path d="M 131.736875 121.449531 
L 142.736875 121.449531 
L 153.736875 121.449531 
" style="fill: none; stroke: #937860; stroke-width: 1.5; stroke-linecap: round"/>
    </g>
    <g id="text_26">
     <!-- sadness -->
     <g style="fill: #262626" transform="translate(162.536875 125.299531) scale(0.11 -0.11)">
      <use xlink:href="#ArialMT-73"/>
      <use xlink:href="#ArialMT-61" x="50"/>
      <use xlink:href="#ArialMT-64" x="105.615234"/>
      <use xlink:href="#ArialMT-6e" x="161.230469"/>
      <use xlink:href="#ArialMT-65" x="216.845703"/>
      <use xlink:href="#ArialMT-73" x="272.460938"/>
      <use xlink:href="#ArialMT-73" x="322.460938"/>
     </g>
    </g>
    <g id="line2d_44">
     <path d="M 131.736875 137.009375 
L 142.736875 137.009375 
L 153.736875 137.009375 
" style="fill: none; stroke: #da8bc3; stroke-width: 1.5; stroke-linecap: round"/>
    </g>
    <g id="text_27">
     <!-- surprise -->
     <g style="fill: #262626" transform="translate(162.536875 140.859375) scale(0.11 -0.11)">
      <use xlink:href="#ArialMT-73"/>
      <use xlink:href="#ArialMT-75" x="50"/>
      <use xlink:href="#ArialMT-72" x="105.615234"/>
      <use xlink:href="#ArialMT-70" x="138.916016"/>
      <use xlink:href="#ArialMT-72" x="194.53125"/>
      <use xlink:href="#ArialMT-69" x="227.832031"/>
      <use xlink:href="#ArialMT-73" x="250.048828"/>
      <use xlink:href="#ArialMT-65" x="300.048828"/>
     </g>
    </g>
    <g id="line2d_45">
     <path d="M 131.736875 152.569219 
L 142.736875 152.569219 
L 153.736875 152.569219 
" style="fill: none; stroke: #8c8c8c; stroke-width: 1.5; stroke-linecap: round"/>
    </g>
    <g id="text_28">
     <!-- trust -->
     <g style="fill: #262626" transform="translate(162.536875 156.419219) scale(0.11 -0.11)">
      <use xlink:href="#ArialMT-74"/>
      <use xlink:href="#ArialMT-72" x="27.783203"/>
      <use xlink:href="#ArialMT-75" x="61.083984"/>
      <use xlink:href="#ArialMT-73" x="116.699219"/>
      <use xlink:href="#ArialMT-74" x="166.699219"/>
     </g>
    </g>
    <g id="line2d_46">
     <path d="M 131.736875 168.129062 
L 142.736875 168.129062 
L 153.736875 168.129062 
" style="fill: none; stroke: #ccb974; stroke-width: 1.5; stroke-linecap: round"/>
    </g>
    <g id="text_29">
     <!-- sentiment -->
     <g style="fill: #262626" transform="translate(162.536875 171.979062) scale(0.11 -0.11)">
      <use xlink:href="#ArialMT-73"/>
      <use xlink:href="#ArialMT-65" x="50"/>
      <use xlink:href="#ArialMT-6e" x="105.615234"/>
      <use xlink:href="#ArialMT-74" x="161.230469"/>
      <use xlink:href="#ArialMT-69" x="189.013672"/>
      <use xlink:href="#ArialMT-6d" x="211.230469"/>
      <use xlink:href="#ArialMT-65" x="294.53125"/>
      <use xlink:href="#ArialMT-6e" x="350.146484"/>
      <use xlink:href="#ArialMT-74" x="405.761719"/>
     </g>
    </g>
   </g>
  </g>
 </g>
 <defs>
  <clipPath id="p21d6122772">
   <rect x="108" y="43.2" width="669.6" height="277.2"/>
  </clipPath>
 </defs>
</svg>
