<?xml version="1.0" encoding="utf-8" standalone="no"?>
<!DOCTYPE svg PUBLIC "-//W3C//DTD SVG 1.1//EN"
  "http://www.w3.org/Graphics/SVG/1.1/DTD/svg11.dtd">
<svg xmlns:xlink="http://www.w3.org/1999/xlink" width="864pt" height="360pt" viewBox="0 0 864 360" xmlns="http://www.w3.org/2000/svg" version="1.1">
 <metadata>
  <rdf:RDF xmlns:dc="http://purl.org/dc/elements/1.1/" xmlns:cc="http://creativecommons.org/ns#" xmlns:rdf="http://www.w3.org/1999/02/22-rdf-syntax-ns#">
   <cc:Work>
    <dc:type rdf:resource="http://purl.org/dc/dcmitype/StillImage"/>
    <dc:date>2023-04-23T13:23:45.907937</dc:date>
    <dc:format>image/svg+xml</dc:format>
    <dc:creator>
     <cc:Agent>
      <dc:title>Matplotlib v3.6.2, https://matplotlib.org/</dc:title>
     </cc:Agent>
    </dc:creator>
   </cc:Work>
  </rdf:RDF>
 </metadata>
 <defs>
  <style type="text/css">*{stroke-linejoin: round; stroke-linecap: butt}</style>
 </defs>
 <g id="figure_1">
  <g id="patch_1">
   <path d="M 0 360 
L 864 360 
L 864 0 
L 0 0 
z
" style="fill: #ffffff"/>
  </g>
  <g id="axes_1">
   <g id="patch_2">
    <path d="M 108 320.4 
L 777.6 320.4 
L 777.6 43.2 
L 108 43.2 
z
" style="fill: #ffffff"/>
   </g>
   <g id="matplotlib.axis_1">
    <g id="xtick_1">
     <g id="line2d_1">
      <path d="M 108.857362 320.4 
L 108.857362 43.2 
" clip-path="url(#p3a88412e67)" style="fill: none; stroke: #ffffff; stroke-linecap: round"/>
     </g>
     <g id="text_1">
      <!-- 1985 -->
      <g style="fill: #262626" transform="translate(96.6233 337.773594) scale(0.11 -0.11)">
       <defs>
        <path id="ArialMT-31" d="M 2384 0 
L 1822 0 
L 1822 3584 
Q 1619 3391 1289 3197 
Q 959 3003 697 2906 
L 697 3450 
Q 1169 3672 1522 3987 
Q 1875 4303 2022 4600 
L 2384 4600 
L 2384 0 
z
" transform="scale(0.015625)"/>
        <path id="ArialMT-39" d="M 350 1059 
L 891 1109 
Q 959 728 1153 556 
Q 1347 384 1650 384 
Q 1909 384 2104 503 
Q 2300 622 2425 820 
Q 2550 1019 2634 1356 
Q 2719 1694 2719 2044 
Q 2719 2081 2716 2156 
Q 2547 1888 2255 1720 
Q 1963 1553 1622 1553 
Q 1053 1553 659 1965 
Q 266 2378 266 3053 
Q 266 3750 677 4175 
Q 1088 4600 1706 4600 
Q 2153 4600 2523 4359 
Q 2894 4119 3086 3673 
Q 3278 3228 3278 2384 
Q 3278 1506 3087 986 
Q 2897 466 2520 194 
Q 2144 -78 1638 -78 
Q 1100 -78 759 220 
Q 419 519 350 1059 
z
M 2653 3081 
Q 2653 3566 2395 3850 
Q 2138 4134 1775 4134 
Q 1400 4134 1122 3828 
Q 844 3522 844 3034 
Q 844 2597 1108 2323 
Q 1372 2050 1759 2050 
Q 2150 2050 2401 2323 
Q 2653 2597 2653 3081 
z
" transform="scale(0.015625)"/>
        <path id="ArialMT-38" d="M 1131 2484 
Q 781 2613 612 2850 
Q 444 3088 444 3419 
Q 444 3919 803 4259 
Q 1163 4600 1759 4600 
Q 2359 4600 2725 4251 
Q 3091 3903 3091 3403 
Q 3091 3084 2923 2848 
Q 2756 2613 2416 2484 
Q 2838 2347 3058 2040 
Q 3278 1734 3278 1309 
Q 3278 722 2862 322 
Q 2447 -78 1769 -78 
Q 1091 -78 675 323 
Q 259 725 259 1325 
Q 259 1772 486 2073 
Q 713 2375 1131 2484 
z
M 1019 3438 
Q 1019 3113 1228 2906 
Q 1438 2700 1772 2700 
Q 2097 2700 2305 2904 
Q 2513 3109 2513 3406 
Q 2513 3716 2298 3927 
Q 2084 4138 1766 4138 
Q 1444 4138 1231 3931 
Q 1019 3725 1019 3438 
z
M 838 1322 
Q 838 1081 952 856 
Q 1066 631 1291 507 
Q 1516 384 1775 384 
Q 2178 384 2440 643 
Q 2703 903 2703 1303 
Q 2703 1709 2433 1975 
Q 2163 2241 1756 2241 
Q 1359 2241 1098 1978 
Q 838 1716 838 1322 
z
" transform="scale(0.015625)"/>
        <path id="ArialMT-35" d="M 266 1200 
L 856 1250 
Q 922 819 1161 601 
Q 1400 384 1738 384 
Q 2144 384 2425 690 
Q 2706 997 2706 1503 
Q 2706 1984 2436 2262 
Q 2166 2541 1728 2541 
Q 1456 2541 1237 2417 
Q 1019 2294 894 2097 
L 366 2166 
L 809 4519 
L 3088 4519 
L 3088 3981 
L 1259 3981 
L 1013 2750 
Q 1425 3038 1878 3038 
Q 2478 3038 2890 2622 
Q 3303 2206 3303 1553 
Q 3303 931 2941 478 
Q 2500 -78 1738 -78 
Q 1113 -78 717 272 
Q 322 622 266 1200 
z
" transform="scale(0.015625)"/>
       </defs>
       <use xlink:href="#ArialMT-31"/>
       <use xlink:href="#ArialMT-39" x="55.615234"/>
       <use xlink:href="#ArialMT-38" x="111.230469"/>
       <use xlink:href="#ArialMT-35" x="166.845703"/>
      </g>
     </g>
    </g>
    <g id="xtick_2">
     <g id="line2d_2">
      <path d="M 194.593598 320.4 
L 194.593598 43.2 
" clip-path="url(#p3a88412e67)" style="fill: none; stroke: #ffffff; stroke-linecap: round"/>
     </g>
     <g id="text_2">
      <!-- 1990 -->
      <g style="fill: #262626" transform="translate(182.359535 337.773594) scale(0.11 -0.11)">
       <defs>
        <path id="ArialMT-30" d="M 266 2259 
Q 266 3072 433 3567 
Q 600 4063 929 4331 
Q 1259 4600 1759 4600 
Q 2128 4600 2406 4451 
Q 2684 4303 2865 4023 
Q 3047 3744 3150 3342 
Q 3253 2941 3253 2259 
Q 3253 1453 3087 958 
Q 2922 463 2592 192 
Q 2263 -78 1759 -78 
Q 1097 -78 719 397 
Q 266 969 266 2259 
z
M 844 2259 
Q 844 1131 1108 757 
Q 1372 384 1759 384 
Q 2147 384 2411 759 
Q 2675 1134 2675 2259 
Q 2675 3391 2411 3762 
Q 2147 4134 1753 4134 
Q 1366 4134 1134 3806 
Q 844 3388 844 2259 
z
" transform="scale(0.015625)"/>
       </defs>
       <use xlink:href="#ArialMT-31"/>
       <use xlink:href="#ArialMT-39" x="55.615234"/>
       <use xlink:href="#ArialMT-39" x="111.230469"/>
       <use xlink:href="#ArialMT-30" x="166.845703"/>
      </g>
     </g>
    </g>
    <g id="xtick_3">
     <g id="line2d_3">
      <path d="M 280.329834 320.4 
L 280.329834 43.2 
" clip-path="url(#p3a88412e67)" style="fill: none; stroke: #ffffff; stroke-linecap: round"/>
     </g>
     <g id="text_3">
      <!-- 1995 -->
      <g style="fill: #262626" transform="translate(268.095771 337.773594) scale(0.11 -0.11)">
       <use xlink:href="#ArialMT-31"/>
       <use xlink:href="#ArialMT-39" x="55.615234"/>
       <use xlink:href="#ArialMT-39" x="111.230469"/>
       <use xlink:href="#ArialMT-35" x="166.845703"/>
      </g>
     </g>
    </g>
    <g id="xtick_4">
     <g id="line2d_4">
      <path d="M 366.066069 320.4 
L 366.066069 43.2 
" clip-path="url(#p3a88412e67)" style="fill: none; stroke: #ffffff; stroke-linecap: round"/>
     </g>
     <g id="text_4">
      <!-- 2000 -->
      <g style="fill: #262626" transform="translate(353.832007 337.773594) scale(0.11 -0.11)">
       <defs>
        <path id="ArialMT-32" d="M 3222 541 
L 3222 0 
L 194 0 
Q 188 203 259 391 
Q 375 700 629 1000 
Q 884 1300 1366 1694 
Q 2113 2306 2375 2664 
Q 2638 3022 2638 3341 
Q 2638 3675 2398 3904 
Q 2159 4134 1775 4134 
Q 1369 4134 1125 3890 
Q 881 3647 878 3216 
L 300 3275 
Q 359 3922 746 4261 
Q 1134 4600 1788 4600 
Q 2447 4600 2831 4234 
Q 3216 3869 3216 3328 
Q 3216 3053 3103 2787 
Q 2991 2522 2730 2228 
Q 2469 1934 1863 1422 
Q 1356 997 1212 845 
Q 1069 694 975 541 
L 3222 541 
z
" transform="scale(0.015625)"/>
       </defs>
       <use xlink:href="#ArialMT-32"/>
       <use xlink:href="#ArialMT-30" x="55.615234"/>
       <use xlink:href="#ArialMT-30" x="111.230469"/>
       <use xlink:href="#ArialMT-30" x="166.845703"/>
      </g>
     </g>
    </g>
    <g id="xtick_5">
     <g id="line2d_5">
      <path d="M 451.802305 320.4 
L 451.802305 43.2 
" clip-path="url(#p3a88412e67)" style="fill: none; stroke: #ffffff; stroke-linecap: round"/>
     </g>
     <g id="text_5">
      <!-- 2005 -->
      <g style="fill: #262626" transform="translate(439.568242 337.773594) scale(0.11 -0.11)">
       <use xlink:href="#ArialMT-32"/>
       <use xlink:href="#ArialMT-30" x="55.615234"/>
       <use xlink:href="#ArialMT-30" x="111.230469"/>
       <use xlink:href="#ArialMT-35" x="166.845703"/>
      </g>
     </g>
    </g>
    <g id="xtick_6">
     <g id="line2d_6">
      <path d="M 537.53854 320.4 
L 537.53854 43.2 
" clip-path="url(#p3a88412e67)" style="fill: none; stroke: #ffffff; stroke-linecap: round"/>
     </g>
     <g id="text_6">
      <!-- 2010 -->
      <g style="fill: #262626" transform="translate(525.304478 337.773594) scale(0.11 -0.11)">
       <use xlink:href="#ArialMT-32"/>
       <use xlink:href="#ArialMT-30" x="55.615234"/>
       <use xlink:href="#ArialMT-31" x="111.230469"/>
       <use xlink:href="#ArialMT-30" x="166.845703"/>
      </g>
     </g>
    </g>
    <g id="xtick_7">
     <g id="line2d_7">
      <path d="M 623.274776 320.4 
L 623.274776 43.2 
" clip-path="url(#p3a88412e67)" style="fill: none; stroke: #ffffff; stroke-linecap: round"/>
     </g>
     <g id="text_7">
      <!-- 2015 -->
      <g style="fill: #262626" transform="translate(611.040713 337.773594) scale(0.11 -0.11)">
       <use xlink:href="#ArialMT-32"/>
       <use xlink:href="#ArialMT-30" x="55.615234"/>
       <use xlink:href="#ArialMT-31" x="111.230469"/>
       <use xlink:href="#ArialMT-35" x="166.845703"/>
      </g>
     </g>
    </g>
    <g id="xtick_8">
     <g id="line2d_8">
      <path d="M 709.011012 320.4 
L 709.011012 43.2 
" clip-path="url(#p3a88412e67)" style="fill: none; stroke: #ffffff; stroke-linecap: round"/>
     </g>
     <g id="text_8">
      <!-- 2020 -->
      <g style="fill: #262626" transform="translate(696.776949 337.773594) scale(0.11 -0.11)">
       <use xlink:href="#ArialMT-32"/>
       <use xlink:href="#ArialMT-30" x="55.615234"/>
       <use xlink:href="#ArialMT-32" x="111.230469"/>
       <use xlink:href="#ArialMT-30" x="166.845703"/>
      </g>
     </g>
    </g>
    <g id="text_9">
     <!-- Year -->
     <g style="fill: #262626" transform="translate(428.653437 353.980781) scale(0.14 -0.14)">
      <defs>
       <path id="ArialMT-59" d="M 1784 0 
L 1784 1941 
L 19 4581 
L 756 4581 
L 1659 3200 
Q 1909 2813 2125 2425 
Q 2331 2784 2625 3234 
L 3513 4581 
L 4219 4581 
L 2391 1941 
L 2391 0 
L 1784 0 
z
" transform="scale(0.015625)"/>
       <path id="ArialMT-65" d="M 2694 1069 
L 3275 997 
Q 3138 488 2766 206 
Q 2394 -75 1816 -75 
Q 1088 -75 661 373 
Q 234 822 234 1631 
Q 234 2469 665 2931 
Q 1097 3394 1784 3394 
Q 2450 3394 2872 2941 
Q 3294 2488 3294 1666 
Q 3294 1616 3291 1516 
L 816 1516 
Q 847 969 1125 678 
Q 1403 388 1819 388 
Q 2128 388 2347 550 
Q 2566 713 2694 1069 
z
M 847 1978 
L 2700 1978 
Q 2663 2397 2488 2606 
Q 2219 2931 1791 2931 
Q 1403 2931 1139 2672 
Q 875 2413 847 1978 
z
" transform="scale(0.015625)"/>
       <path id="ArialMT-61" d="M 2588 409 
Q 2275 144 1986 34 
Q 1697 -75 1366 -75 
Q 819 -75 525 192 
Q 231 459 231 875 
Q 231 1119 342 1320 
Q 453 1522 633 1644 
Q 813 1766 1038 1828 
Q 1203 1872 1538 1913 
Q 2219 1994 2541 2106 
Q 2544 2222 2544 2253 
Q 2544 2597 2384 2738 
Q 2169 2928 1744 2928 
Q 1347 2928 1158 2789 
Q 969 2650 878 2297 
L 328 2372 
Q 403 2725 575 2942 
Q 747 3159 1072 3276 
Q 1397 3394 1825 3394 
Q 2250 3394 2515 3294 
Q 2781 3194 2906 3042 
Q 3031 2891 3081 2659 
Q 3109 2516 3109 2141 
L 3109 1391 
Q 3109 606 3145 398 
Q 3181 191 3288 0 
L 2700 0 
Q 2613 175 2588 409 
z
M 2541 1666 
Q 2234 1541 1622 1453 
Q 1275 1403 1131 1340 
Q 988 1278 909 1158 
Q 831 1038 831 891 
Q 831 666 1001 516 
Q 1172 366 1500 366 
Q 1825 366 2078 508 
Q 2331 650 2450 897 
Q 2541 1088 2541 1459 
L 2541 1666 
z
" transform="scale(0.015625)"/>
       <path id="ArialMT-72" d="M 416 0 
L 416 3319 
L 922 3319 
L 922 2816 
Q 1116 3169 1280 3281 
Q 1444 3394 1641 3394 
Q 1925 3394 2219 3213 
L 2025 2691 
Q 1819 2813 1613 2813 
Q 1428 2813 1281 2702 
Q 1134 2591 1072 2394 
Q 978 2094 978 1738 
L 978 0 
L 416 0 
z
" transform="scale(0.015625)"/>
      </defs>
      <use xlink:href="#ArialMT-59"/>
      <use xlink:href="#ArialMT-65" x="57.574219"/>
      <use xlink:href="#ArialMT-61" x="113.189453"/>
      <use xlink:href="#ArialMT-72" x="168.804688"/>
     </g>
    </g>
   </g>
   <g id="matplotlib.axis_2">
    <g id="ytick_1">
     <g id="line2d_9">
      <path d="M 108 319.177813 
L 777.6 319.177813 
" clip-path="url(#p3a88412e67)" style="fill: none; stroke: #ffffff; stroke-linecap: round"/>
     </g>
     <g id="text_10">
      <!-- 0.0 -->
      <g style="fill: #262626" transform="translate(83.21 323.114609) scale(0.11 -0.11)">
       <defs>
        <path id="ArialMT-2e" d="M 581 0 
L 581 641 
L 1222 641 
L 1222 0 
L 581 0 
z
" transform="scale(0.015625)"/>
       </defs>
       <use xlink:href="#ArialMT-30"/>
       <use xlink:href="#ArialMT-2e" x="55.615234"/>
       <use xlink:href="#ArialMT-30" x="83.398438"/>
      </g>
     </g>
    </g>
    <g id="ytick_2">
     <g id="line2d_10">
      <path d="M 108 279.752411 
L 777.6 279.752411 
" clip-path="url(#p3a88412e67)" style="fill: none; stroke: #ffffff; stroke-linecap: round"/>
     </g>
     <g id="text_11">
      <!-- 0.1 -->
      <g style="fill: #262626" transform="translate(83.21 283.689208) scale(0.11 -0.11)">
       <use xlink:href="#ArialMT-30"/>
       <use xlink:href="#ArialMT-2e" x="55.615234"/>
       <use xlink:href="#ArialMT-31" x="83.398438"/>
      </g>
     </g>
    </g>
    <g id="ytick_3">
     <g id="line2d_11">
      <path d="M 108 240.327009 
L 777.6 240.327009 
" clip-path="url(#p3a88412e67)" style="fill: none; stroke: #ffffff; stroke-linecap: round"/>
     </g>
     <g id="text_12">
      <!-- 0.2 -->
      <g style="fill: #262626" transform="translate(83.21 244.263806) scale(0.11 -0.11)">
       <use xlink:href="#ArialMT-30"/>
       <use xlink:href="#ArialMT-2e" x="55.615234"/>
       <use xlink:href="#ArialMT-32" x="83.398438"/>
      </g>
     </g>
    </g>
    <g id="ytick_4">
     <g id="line2d_12">
      <path d="M 108 200.901607 
L 777.6 200.901607 
" clip-path="url(#p3a88412e67)" style="fill: none; stroke: #ffffff; stroke-linecap: round"/>
     </g>
     <g id="text_13">
      <!-- 0.3 -->
      <g style="fill: #262626" transform="translate(83.21 204.838404) scale(0.11 -0.11)">
       <defs>
        <path id="ArialMT-33" d="M 269 1209 
L 831 1284 
Q 928 806 1161 595 
Q 1394 384 1728 384 
Q 2125 384 2398 659 
Q 2672 934 2672 1341 
Q 2672 1728 2419 1979 
Q 2166 2231 1775 2231 
Q 1616 2231 1378 2169 
L 1441 2663 
Q 1497 2656 1531 2656 
Q 1891 2656 2178 2843 
Q 2466 3031 2466 3422 
Q 2466 3731 2256 3934 
Q 2047 4138 1716 4138 
Q 1388 4138 1169 3931 
Q 950 3725 888 3313 
L 325 3413 
Q 428 3978 793 4289 
Q 1159 4600 1703 4600 
Q 2078 4600 2393 4439 
Q 2709 4278 2876 4000 
Q 3044 3722 3044 3409 
Q 3044 3113 2884 2869 
Q 2725 2625 2413 2481 
Q 2819 2388 3044 2092 
Q 3269 1797 3269 1353 
Q 3269 753 2831 336 
Q 2394 -81 1725 -81 
Q 1122 -81 723 278 
Q 325 638 269 1209 
z
" transform="scale(0.015625)"/>
       </defs>
       <use xlink:href="#ArialMT-30"/>
       <use xlink:href="#ArialMT-2e" x="55.615234"/>
       <use xlink:href="#ArialMT-33" x="83.398438"/>
      </g>
     </g>
    </g>
    <g id="ytick_5">
     <g id="line2d_13">
      <path d="M 108 161.476205 
L 777.6 161.476205 
" clip-path="url(#p3a88412e67)" style="fill: none; stroke: #ffffff; stroke-linecap: round"/>
     </g>
     <g id="text_14">
      <!-- 0.4 -->
      <g style="fill: #262626" transform="translate(83.21 165.413002) scale(0.11 -0.11)">
       <defs>
        <path id="ArialMT-34" d="M 2069 0 
L 2069 1097 
L 81 1097 
L 81 1613 
L 2172 4581 
L 2631 4581 
L 2631 1613 
L 3250 1613 
L 3250 1097 
L 2631 1097 
L 2631 0 
L 2069 0 
z
M 2069 1613 
L 2069 3678 
L 634 1613 
L 2069 1613 
z
" transform="scale(0.015625)"/>
       </defs>
       <use xlink:href="#ArialMT-30"/>
       <use xlink:href="#ArialMT-2e" x="55.615234"/>
       <use xlink:href="#ArialMT-34" x="83.398438"/>
      </g>
     </g>
    </g>
    <g id="ytick_6">
     <g id="line2d_14">
      <path d="M 108 122.050804 
L 777.6 122.050804 
" clip-path="url(#p3a88412e67)" style="fill: none; stroke: #ffffff; stroke-linecap: round"/>
     </g>
     <g id="text_15">
      <!-- 0.5 -->
      <g style="fill: #262626" transform="translate(83.21 125.9876) scale(0.11 -0.11)">
       <use xlink:href="#ArialMT-30"/>
       <use xlink:href="#ArialMT-2e" x="55.615234"/>
       <use xlink:href="#ArialMT-35" x="83.398438"/>
      </g>
     </g>
    </g>
    <g id="ytick_7">
     <g id="line2d_15">
      <path d="M 108 82.625402 
L 777.6 82.625402 
" clip-path="url(#p3a88412e67)" style="fill: none; stroke: #ffffff; stroke-linecap: round"/>
     </g>
     <g id="text_16">
      <!-- 0.6 -->
      <g style="fill: #262626" transform="translate(83.21 86.562199) scale(0.11 -0.11)">
       <defs>
        <path id="ArialMT-36" d="M 3184 3459 
L 2625 3416 
Q 2550 3747 2413 3897 
Q 2184 4138 1850 4138 
Q 1581 4138 1378 3988 
Q 1113 3794 959 3422 
Q 806 3050 800 2363 
Q 1003 2672 1297 2822 
Q 1591 2972 1913 2972 
Q 2475 2972 2870 2558 
Q 3266 2144 3266 1488 
Q 3266 1056 3080 686 
Q 2894 316 2569 119 
Q 2244 -78 1831 -78 
Q 1128 -78 684 439 
Q 241 956 241 2144 
Q 241 3472 731 4075 
Q 1159 4600 1884 4600 
Q 2425 4600 2770 4297 
Q 3116 3994 3184 3459 
z
M 888 1484 
Q 888 1194 1011 928 
Q 1134 663 1356 523 
Q 1578 384 1822 384 
Q 2178 384 2434 671 
Q 2691 959 2691 1453 
Q 2691 1928 2437 2201 
Q 2184 2475 1800 2475 
Q 1419 2475 1153 2201 
Q 888 1928 888 1484 
z
" transform="scale(0.015625)"/>
       </defs>
       <use xlink:href="#ArialMT-30"/>
       <use xlink:href="#ArialMT-2e" x="55.615234"/>
       <use xlink:href="#ArialMT-36" x="83.398438"/>
      </g>
     </g>
    </g>
    <g id="ytick_8">
     <g id="line2d_16">
      <path d="M 108 43.2 
L 777.6 43.2 
" clip-path="url(#p3a88412e67)" style="fill: none; stroke: #ffffff; stroke-linecap: round"/>
     </g>
     <g id="text_17">
      <!-- 0.7 -->
      <g style="fill: #262626" transform="translate(83.21 47.136797) scale(0.11 -0.11)">
       <defs>
        <path id="ArialMT-37" d="M 303 3981 
L 303 4522 
L 3269 4522 
L 3269 4084 
Q 2831 3619 2401 2847 
Q 1972 2075 1738 1259 
Q 1569 684 1522 0 
L 944 0 
Q 953 541 1156 1306 
Q 1359 2072 1739 2783 
Q 2119 3494 2547 3981 
L 303 3981 
z
" transform="scale(0.015625)"/>
       </defs>
       <use xlink:href="#ArialMT-30"/>
       <use xlink:href="#ArialMT-2e" x="55.615234"/>
       <use xlink:href="#ArialMT-37" x="83.398438"/>
      </g>
     </g>
    </g>
    <g id="text_18">
     <!-- Normalized Topic Score -->
     <g style="fill: #262626" transform="translate(76.4275 255.587656) rotate(-90) scale(0.14 -0.14)">
      <defs>
       <path id="ArialMT-4e" d="M 488 0 
L 488 4581 
L 1109 4581 
L 3516 984 
L 3516 4581 
L 4097 4581 
L 4097 0 
L 3475 0 
L 1069 3600 
L 1069 0 
L 488 0 
z
" transform="scale(0.015625)"/>
       <path id="ArialMT-6f" d="M 213 1659 
Q 213 2581 725 3025 
Q 1153 3394 1769 3394 
Q 2453 3394 2887 2945 
Q 3322 2497 3322 1706 
Q 3322 1066 3130 698 
Q 2938 331 2570 128 
Q 2203 -75 1769 -75 
Q 1072 -75 642 372 
Q 213 819 213 1659 
z
M 791 1659 
Q 791 1022 1069 705 
Q 1347 388 1769 388 
Q 2188 388 2466 706 
Q 2744 1025 2744 1678 
Q 2744 2294 2464 2611 
Q 2184 2928 1769 2928 
Q 1347 2928 1069 2612 
Q 791 2297 791 1659 
z
" transform="scale(0.015625)"/>
       <path id="ArialMT-6d" d="M 422 0 
L 422 3319 
L 925 3319 
L 925 2853 
Q 1081 3097 1340 3245 
Q 1600 3394 1931 3394 
Q 2300 3394 2536 3241 
Q 2772 3088 2869 2813 
Q 3263 3394 3894 3394 
Q 4388 3394 4653 3120 
Q 4919 2847 4919 2278 
L 4919 0 
L 4359 0 
L 4359 2091 
Q 4359 2428 4304 2576 
Q 4250 2725 4106 2815 
Q 3963 2906 3769 2906 
Q 3419 2906 3187 2673 
Q 2956 2441 2956 1928 
L 2956 0 
L 2394 0 
L 2394 2156 
Q 2394 2531 2256 2718 
Q 2119 2906 1806 2906 
Q 1569 2906 1367 2781 
Q 1166 2656 1075 2415 
Q 984 2175 984 1722 
L 984 0 
L 422 0 
z
" transform="scale(0.015625)"/>
       <path id="ArialMT-6c" d="M 409 0 
L 409 4581 
L 972 4581 
L 972 0 
L 409 0 
z
" transform="scale(0.015625)"/>
       <path id="ArialMT-69" d="M 425 3934 
L 425 4581 
L 988 4581 
L 988 3934 
L 425 3934 
z
M 425 0 
L 425 3319 
L 988 3319 
L 988 0 
L 425 0 
z
" transform="scale(0.015625)"/>
       <path id="ArialMT-7a" d="M 125 0 
L 125 456 
L 2238 2881 
Q 1878 2863 1603 2863 
L 250 2863 
L 250 3319 
L 2963 3319 
L 2963 2947 
L 1166 841 
L 819 456 
Q 1197 484 1528 484 
L 3063 484 
L 3063 0 
L 125 0 
z
" transform="scale(0.015625)"/>
       <path id="ArialMT-64" d="M 2575 0 
L 2575 419 
Q 2259 -75 1647 -75 
Q 1250 -75 917 144 
Q 584 363 401 755 
Q 219 1147 219 1656 
Q 219 2153 384 2558 
Q 550 2963 881 3178 
Q 1213 3394 1622 3394 
Q 1922 3394 2156 3267 
Q 2391 3141 2538 2938 
L 2538 4581 
L 3097 4581 
L 3097 0 
L 2575 0 
z
M 797 1656 
Q 797 1019 1065 703 
Q 1334 388 1700 388 
Q 2069 388 2326 689 
Q 2584 991 2584 1609 
Q 2584 2291 2321 2609 
Q 2059 2928 1675 2928 
Q 1300 2928 1048 2622 
Q 797 2316 797 1656 
z
" transform="scale(0.015625)"/>
       <path id="ArialMT-20" transform="scale(0.015625)"/>
       <path id="ArialMT-54" d="M 1659 0 
L 1659 4041 
L 150 4041 
L 150 4581 
L 3781 4581 
L 3781 4041 
L 2266 4041 
L 2266 0 
L 1659 0 
z
" transform="scale(0.015625)"/>
       <path id="ArialMT-70" d="M 422 -1272 
L 422 3319 
L 934 3319 
L 934 2888 
Q 1116 3141 1344 3267 
Q 1572 3394 1897 3394 
Q 2322 3394 2647 3175 
Q 2972 2956 3137 2557 
Q 3303 2159 3303 1684 
Q 3303 1175 3120 767 
Q 2938 359 2589 142 
Q 2241 -75 1856 -75 
Q 1575 -75 1351 44 
Q 1128 163 984 344 
L 984 -1272 
L 422 -1272 
z
M 931 1641 
Q 931 1000 1190 694 
Q 1450 388 1819 388 
Q 2194 388 2461 705 
Q 2728 1022 2728 1688 
Q 2728 2322 2467 2637 
Q 2206 2953 1844 2953 
Q 1484 2953 1207 2617 
Q 931 2281 931 1641 
z
" transform="scale(0.015625)"/>
       <path id="ArialMT-63" d="M 2588 1216 
L 3141 1144 
Q 3050 572 2676 248 
Q 2303 -75 1759 -75 
Q 1078 -75 664 370 
Q 250 816 250 1647 
Q 250 2184 428 2587 
Q 606 2991 970 3192 
Q 1334 3394 1763 3394 
Q 2303 3394 2647 3120 
Q 2991 2847 3088 2344 
L 2541 2259 
Q 2463 2594 2264 2762 
Q 2066 2931 1784 2931 
Q 1359 2931 1093 2626 
Q 828 2322 828 1663 
Q 828 994 1084 691 
Q 1341 388 1753 388 
Q 2084 388 2306 591 
Q 2528 794 2588 1216 
z
" transform="scale(0.015625)"/>
       <path id="ArialMT-53" d="M 288 1472 
L 859 1522 
Q 900 1178 1048 958 
Q 1197 738 1509 602 
Q 1822 466 2213 466 
Q 2559 466 2825 569 
Q 3091 672 3220 851 
Q 3350 1031 3350 1244 
Q 3350 1459 3225 1620 
Q 3100 1781 2813 1891 
Q 2628 1963 1997 2114 
Q 1366 2266 1113 2400 
Q 784 2572 623 2826 
Q 463 3081 463 3397 
Q 463 3744 659 4045 
Q 856 4347 1234 4503 
Q 1613 4659 2075 4659 
Q 2584 4659 2973 4495 
Q 3363 4331 3572 4012 
Q 3781 3694 3797 3291 
L 3216 3247 
Q 3169 3681 2898 3903 
Q 2628 4125 2100 4125 
Q 1550 4125 1298 3923 
Q 1047 3722 1047 3438 
Q 1047 3191 1225 3031 
Q 1400 2872 2139 2705 
Q 2878 2538 3153 2413 
Q 3553 2228 3743 1945 
Q 3934 1663 3934 1294 
Q 3934 928 3725 604 
Q 3516 281 3123 101 
Q 2731 -78 2241 -78 
Q 1619 -78 1198 103 
Q 778 284 539 648 
Q 300 1013 288 1472 
z
" transform="scale(0.015625)"/>
      </defs>
      <use xlink:href="#ArialMT-4e"/>
      <use xlink:href="#ArialMT-6f" x="72.216797"/>
      <use xlink:href="#ArialMT-72" x="127.832031"/>
      <use xlink:href="#ArialMT-6d" x="161.132812"/>
      <use xlink:href="#ArialMT-61" x="244.433594"/>
      <use xlink:href="#ArialMT-6c" x="300.048828"/>
      <use xlink:href="#ArialMT-69" x="322.265625"/>
      <use xlink:href="#ArialMT-7a" x="344.482422"/>
      <use xlink:href="#ArialMT-65" x="394.482422"/>
      <use xlink:href="#ArialMT-64" x="450.097656"/>
      <use xlink:href="#ArialMT-20" x="505.712891"/>
      <use xlink:href="#ArialMT-54" x="531.746094"/>
      <use xlink:href="#ArialMT-6f" x="581.705078"/>
      <use xlink:href="#ArialMT-70" x="637.320312"/>
      <use xlink:href="#ArialMT-69" x="692.935547"/>
      <use xlink:href="#ArialMT-63" x="715.152344"/>
      <use xlink:href="#ArialMT-20" x="765.152344"/>
      <use xlink:href="#ArialMT-53" x="792.935547"/>
      <use xlink:href="#ArialMT-63" x="859.634766"/>
      <use xlink:href="#ArialMT-6f" x="909.634766"/>
      <use xlink:href="#ArialMT-72" x="965.25"/>
      <use xlink:href="#ArialMT-65" x="998.550781"/>
     </g>
    </g>
   </g>
   <g id="PolyCollection_1"/>
   <g id="PolyCollection_2"/>
   <g id="PolyCollection_3"/>
   <g id="PolyCollection_4"/>
   <g id="PolyCollection_5"/>
   <g id="PolyCollection_6"/>
   <g id="PolyCollection_7"/>
   <g id="PolyCollection_8"/>
   <g id="PolyCollection_9"/>
   <g id="line2d_17">
    <path d="M 126.004609 310.322167 
L 143.151857 307.941564 
L 160.299104 309.017468 
L 177.446351 290.602131 
L 194.593598 298.642078 
L 211.740845 297.17773 
L 228.888092 303.36022 
L 246.035339 298.476856 
L 263.182586 287.995825 
L 280.329834 276.927158 
L 297.477081 267.745704 
L 314.624328 258.547091 
L 331.771575 267.819387 
L 348.918822 276.097007 
L 366.066069 275.155719 
L 383.213316 265.875466 
L 400.360563 242.209216 
L 417.50781 267.89654 
L 434.655058 269.64453 
L 451.802305 268.28768 
L 468.949552 267.388816 
L 486.096799 268.068714 
L 503.244046 262.782746 
L 520.391293 252.457702 
L 537.53854 257.635509 
L 554.685787 251.414233 
L 571.833035 257.011367 
L 588.980282 264.387104 
L 606.127529 264.453796 
L 623.274776 264.768306 
L 640.422023 251.475145 
L 657.56927 264.005881 
L 674.716517 257.760942 
L 691.863764 250.924045 
L 709.011012 244.081715 
L 726.158259 234.115844 
L 743.305506 238.589451 
L 760.452753 273.574294 
" clip-path="url(#p3a88412e67)" style="fill: none; stroke: #4c72b0; stroke-width: 1.5; stroke-linecap: round"/>
   </g>
   <g id="line2d_18">
    <path d="M 126.004609 315.559563 
L 143.151857 314.468558 
L 160.299104 313.393803 
L 177.446351 312.900839 
L 194.593598 313.091817 
L 211.740845 297.074436 
L 228.888092 305.326957 
L 246.035339 309.102809 
L 263.182586 304.539185 
L 280.329834 301.479348 
L 297.477081 308.752069 
L 314.624328 302.585306 
L 331.771575 305.537608 
L 348.918822 303.613881 
L 366.066069 299.869744 
L 383.213316 301.973754 
L 400.360563 302.302966 
L 417.50781 300.810557 
L 434.655058 308.879575 
L 451.802305 306.218685 
L 468.949552 310.489148 
L 486.096799 308.354121 
L 503.244046 307.259017 
L 520.391293 309.945958 
L 537.53854 306.008459 
L 554.685787 311.211853 
L 571.833035 312.186278 
L 588.980282 311.867176 
L 606.127529 311.410472 
L 623.274776 311.603202 
L 640.422023 310.648531 
L 657.56927 312.153198 
L 674.716517 312.284505 
L 691.863764 309.947557 
L 709.011012 312.80757 
L 726.158259 312.290457 
L 743.305506 311.189106 
L 760.452753 314.526069 
" clip-path="url(#p3a88412e67)" style="fill: none; stroke: #dd8452; stroke-width: 1.5; stroke-linecap: round"/>
   </g>
   <g id="line2d_19">
    <path d="M 126.004609 296.850276 
L 143.151857 310.739851 
L 160.299104 308.932481 
L 177.446351 296.863377 
L 194.593598 284.283366 
L 211.740845 281.660134 
L 228.888092 277.290899 
L 246.035339 269.712502 
L 263.182586 244.614333 
L 280.329834 260.738561 
L 297.477081 247.856391 
L 314.624328 243.328394 
L 331.771575 242.122945 
L 348.918822 224.159552 
L 366.066069 231.385463 
L 383.213316 232.714218 
L 400.360563 246.245284 
L 417.50781 244.566255 
L 434.655058 240.870206 
L 451.802305 235.630901 
L 468.949552 237.940802 
L 486.096799 227.549325 
L 503.244046 267.368386 
L 520.391293 244.210673 
L 537.53854 263.950623 
L 554.685787 261.791405 
L 571.833035 259.49972 
L 588.980282 262.702218 
L 606.127529 251.708006 
L 623.274776 256.772001 
L 640.422023 276.905485 
L 657.56927 276.370784 
L 674.716517 268.752537 
L 691.863764 257.273079 
L 709.011012 265.19121 
L 726.158259 258.659554 
L 743.305506 256.887772 
L 760.452753 249.623186 
" clip-path="url(#p3a88412e67)" style="fill: none; stroke: #55a868; stroke-width: 1.5; stroke-linecap: round"/>
   </g>
   <g id="line2d_20">
    <path d="M 126.004609 317.299939 
L 143.151857 316.451842 
L 160.299104 315.445257 
L 177.446351 313.662109 
L 194.593598 316.386909 
L 211.740845 316.036976 
L 228.888092 315.306419 
L 246.035339 316.023972 
L 263.182586 314.313509 
L 280.329834 315.071423 
L 297.477081 314.358778 
L 314.624328 313.926454 
L 331.771575 315.867285 
L 348.918822 315.44777 
L 366.066069 314.090045 
L 383.213316 315.900352 
L 400.360563 312.489603 
L 417.50781 310.935516 
L 434.655058 312.262118 
L 451.802305 310.278034 
L 468.949552 308.023392 
L 486.096799 309.204056 
L 503.244046 300.640006 
L 520.391293 308.892813 
L 537.53854 303.23744 
L 554.685787 298.294843 
L 571.833035 285.857872 
L 588.980282 275.858767 
L 606.127529 258.49771 
L 623.274776 253.701267 
L 640.422023 243.745801 
L 657.56927 229.083528 
L 674.716517 222.109177 
L 691.863764 239.032471 
L 709.011012 238.032296 
L 726.158259 244.236041 
L 743.305506 258.914554 
L 760.452753 237.299899 
" clip-path="url(#p3a88412e67)" style="fill: none; stroke: #c44e52; stroke-width: 1.5; stroke-linecap: round"/>
   </g>
   <g id="line2d_21">
    <path d="M 126.004609 244.152731 
L 143.151857 247.889548 
L 160.299104 275.315308 
L 177.446351 250.427121 
L 194.593598 245.561197 
L 211.740845 249.64305 
L 228.888092 281.199994 
L 246.035339 262.152647 
L 263.182586 289.613444 
L 280.329834 265.388925 
L 297.477081 274.699948 
L 314.624328 277.929447 
L 331.771575 270.636756 
L 348.918822 268.04883 
L 366.066069 268.414325 
L 383.213316 261.144348 
L 400.360563 263.114672 
L 417.50781 246.948377 
L 434.655058 258.125943 
L 451.802305 242.935258 
L 468.949552 258.459235 
L 486.096799 253.645357 
L 503.244046 238.598838 
L 520.391293 235.405909 
L 537.53854 242.496311 
L 554.685787 255.696636 
L 571.833035 262.476747 
L 588.980282 260.131382 
L 606.127529 275.944118 
L 623.274776 269.029778 
L 640.422023 263.177424 
L 657.56927 257.778813 
L 674.716517 264.929206 
L 691.863764 260.660875 
L 709.011012 264.35285 
L 726.158259 272.623672 
L 743.305506 264.086172 
L 760.452753 223.264827 
" clip-path="url(#p3a88412e67)" style="fill: none; stroke: #8172b3; stroke-width: 1.5; stroke-linecap: round"/>
   </g>
   <g id="line2d_22">
    <path d="M 126.004609 306.360569 
L 143.151857 300.053421 
L 160.299104 297.879984 
L 177.446351 298.16032 
L 194.593598 300.287508 
L 211.740845 305.405483 
L 228.888092 289.285538 
L 246.035339 278.691407 
L 263.182586 278.065515 
L 280.329834 260.200961 
L 297.477081 256.137277 
L 314.624328 270.154153 
L 331.771575 265.031333 
L 348.918822 256.467033 
L 366.066069 251.174563 
L 383.213316 249.864124 
L 400.360563 258.993018 
L 417.50781 250.314747 
L 434.655058 251.584556 
L 451.802305 242.59913 
L 468.949552 244.814815 
L 486.096799 258.777165 
L 503.244046 260.598088 
L 520.391293 267.684081 
L 537.53854 246.67605 
L 554.685787 256.446839 
L 571.833035 266.629584 
L 588.980282 274.067317 
L 606.127529 284.880625 
L 623.274776 289.891999 
L 640.422023 292.184018 
L 657.56927 297.562201 
L 674.716517 292.555765 
L 691.863764 296.413557 
L 709.011012 298.071668 
L 726.158259 295.960194 
L 743.305506 293.94751 
L 760.452753 297.617348 
" clip-path="url(#p3a88412e67)" style="fill: none; stroke: #937860; stroke-width: 1.5; stroke-linecap: round"/>
   </g>
   <g id="line2d_23">
    <path d="M 126.004609 64.151972 
L 143.151857 58.254802 
L 160.299104 54.258251 
L 177.446351 94.194382 
L 194.593598 105.795156 
L 211.740845 123.667649 
L 228.888092 126.560548 
L 246.035339 155.603271 
L 263.182586 163.585287 
L 280.329834 200.330731 
L 297.477081 214.824521 
L 314.624328 210.80552 
L 331.771575 214.501574 
L 348.918822 245.370239 
L 366.066069 247.021282 
L 383.213316 251.079677 
L 400.360563 253.593221 
L 417.50781 255.420673 
L 434.655058 239.47216 
L 451.802305 285.998762 
L 468.949552 271.517311 
L 486.096799 280.782714 
L 503.244046 272.21574 
L 520.391293 284.587288 
L 537.53854 287.842536 
L 554.685787 283.805864 
L 571.833035 299.867763 
L 588.980282 297.271452 
L 606.127529 298.489228 
L 623.274776 303.046226 
L 640.422023 301.919955 
L 657.56927 301.974584 
L 674.716517 303.369908 
L 691.863764 299.967858 
L 709.011012 296.592302 
L 726.158259 297.402649 
L 743.305506 298.733378 
L 760.452753 302.748332 
" clip-path="url(#p3a88412e67)" style="fill: none; stroke: #da8bc3; stroke-width: 1.5; stroke-linecap: round"/>
   </g>
   <g id="line2d_24">
    <path d="M 126.004609 311.655894 
L 143.151857 314.722786 
L 160.299104 294.526361 
L 177.446351 310.870447 
L 194.593598 307.4343 
L 211.740845 300.473677 
L 228.888092 270.525856 
L 246.035339 276.717263 
L 263.182586 289.289779 
L 280.329834 294.675148 
L 297.477081 295.805695 
L 314.624328 301.604255 
L 331.771575 301.806427 
L 348.918822 295.503564 
L 366.066069 298.165718 
L 383.213316 304.25544 
L 400.360563 305.796472 
L 417.50781 307.051969 
L 434.655058 303.228664 
L 451.802305 299.772459 
L 468.949552 298.835306 
L 486.096799 307.152192 
L 503.244046 302.767117 
L 520.391293 305.064839 
L 537.53854 302.970985 
L 554.685787 303.984174 
L 571.833035 308.036751 
L 588.980282 308.785233 
L 606.127529 307.299648 
L 623.274776 304.859828 
L 640.422023 307.256648 
L 657.56927 308.458749 
L 674.716517 310.901262 
L 691.863764 309.104152 
L 709.011012 312.175067 
L 726.158259 309.630533 
L 743.305506 310.497311 
L 760.452753 309.623721 
" clip-path="url(#p3a88412e67)" style="fill: none; stroke: #8c8c8c; stroke-width: 1.5; stroke-linecap: round"/>
   </g>
   <g id="line2d_25">
    <path d="M 126.004609 311.993186 
L 143.151857 307.823923 
L 160.299104 309.577381 
L 177.446351 310.665569 
L 194.593598 306.863965 
L 211.740845 307.207161 
L 228.888092 309.489865 
L 246.035339 311.865569 
L 263.182586 306.329419 
L 280.329834 303.53404 
L 297.477081 298.165911 
L 314.624328 299.465673 
L 331.771575 295.022982 
L 348.918822 293.638419 
L 366.066069 293.069437 
L 383.213316 295.538916 
L 400.360563 293.601844 
L 417.50781 294.401661 
L 434.655058 294.278543 
L 451.802305 286.625385 
L 468.949552 280.877469 
L 486.096799 264.812651 
L 503.244046 266.116357 
L 520.391293 270.097031 
L 537.53854 267.528381 
L 554.685787 255.700448 
L 571.833035 226.780213 
L 588.980282 223.275647 
L 606.127529 225.662691 
L 623.274776 224.673689 
L 640.422023 231.033288 
L 657.56927 230.958558 
L 674.716517 245.682995 
L 691.863764 255.022702 
L 709.011012 247.041617 
L 726.158259 253.427351 
L 743.305506 245.501041 
L 760.452753 270.068619 
" clip-path="url(#p3a88412e67)" style="fill: none; stroke: #ccb974; stroke-width: 1.5; stroke-linecap: round"/>
   </g>
   <g id="line2d_26"/>
   <g id="line2d_27"/>
   <g id="line2d_28"/>
   <g id="line2d_29"/>
   <g id="line2d_30"/>
   <g id="line2d_31"/>
   <g id="line2d_32"/>
   <g id="line2d_33"/>
   <g id="line2d_34"/>
   <g id="line2d_35">
    <path d="M 108 319.177813 
L 777.6 319.177813 
" clip-path="url(#p3a88412e67)" style="fill: none; stroke: #000000; stroke-linecap: round"/>
   </g>
   <g id="line2d_36">
    <path d="M 108.857362 320.4 
L 108.857362 43.2 
" clip-path="url(#p3a88412e67)" style="fill: none; stroke: #000000; stroke-linecap: round"/>
   </g>
   <g id="patch_3">
    <path d="M 108 320.4 
L 108 43.2 
" style="fill: none; stroke: #ffffff; stroke-width: 1.25; stroke-linejoin: miter; stroke-linecap: square"/>
   </g>
   <g id="patch_4">
    <path d="M 777.6 320.4 
L 777.6 43.2 
" style="fill: none; stroke: #ffffff; stroke-width: 1.25; stroke-linejoin: miter; stroke-linecap: square"/>
   </g>
   <g id="patch_5">
    <path d="M 108 320.4 
L 777.6 320.4 
" style="fill: none; stroke: #ffffff; stroke-width: 1.25; stroke-linejoin: miter; stroke-linecap: square"/>
   </g>
   <g id="patch_6">
    <path d="M 108 43.2 
L 777.6 43.2 
" style="fill: none; stroke: #ffffff; stroke-width: 1.25; stroke-linejoin: miter; stroke-linecap: square"/>
   </g>
   <g id="text_19">
    <!-- Topics Over Time -->
    <g style="fill: #262626" transform="translate(365.565625 37.2) scale(0.2 -0.2)">
     <defs>
      <path id="ArialMT-73" d="M 197 991 
L 753 1078 
Q 800 744 1014 566 
Q 1228 388 1613 388 
Q 2000 388 2187 545 
Q 2375 703 2375 916 
Q 2375 1106 2209 1216 
Q 2094 1291 1634 1406 
Q 1016 1563 777 1677 
Q 538 1791 414 1992 
Q 291 2194 291 2438 
Q 291 2659 392 2848 
Q 494 3038 669 3163 
Q 800 3259 1026 3326 
Q 1253 3394 1513 3394 
Q 1903 3394 2198 3281 
Q 2494 3169 2634 2976 
Q 2775 2784 2828 2463 
L 2278 2388 
Q 2241 2644 2061 2787 
Q 1881 2931 1553 2931 
Q 1166 2931 1000 2803 
Q 834 2675 834 2503 
Q 834 2394 903 2306 
Q 972 2216 1119 2156 
Q 1203 2125 1616 2013 
Q 2213 1853 2448 1751 
Q 2684 1650 2818 1456 
Q 2953 1263 2953 975 
Q 2953 694 2789 445 
Q 2625 197 2315 61 
Q 2006 -75 1616 -75 
Q 969 -75 630 194 
Q 291 463 197 991 
z
" transform="scale(0.015625)"/>
      <path id="ArialMT-4f" d="M 309 2231 
Q 309 3372 921 4017 
Q 1534 4663 2503 4663 
Q 3138 4663 3647 4359 
Q 4156 4056 4423 3514 
Q 4691 2972 4691 2284 
Q 4691 1588 4409 1038 
Q 4128 488 3612 205 
Q 3097 -78 2500 -78 
Q 1853 -78 1343 234 
Q 834 547 571 1087 
Q 309 1628 309 2231 
z
M 934 2222 
Q 934 1394 1379 917 
Q 1825 441 2497 441 
Q 3181 441 3623 922 
Q 4066 1403 4066 2288 
Q 4066 2847 3877 3264 
Q 3688 3681 3323 3911 
Q 2959 4141 2506 4141 
Q 1863 4141 1398 3698 
Q 934 3256 934 2222 
z
" transform="scale(0.015625)"/>
      <path id="ArialMT-76" d="M 1344 0 
L 81 3319 
L 675 3319 
L 1388 1331 
Q 1503 1009 1600 663 
Q 1675 925 1809 1294 
L 2547 3319 
L 3125 3319 
L 1869 0 
L 1344 0 
z
" transform="scale(0.015625)"/>
     </defs>
     <use xlink:href="#ArialMT-54"/>
     <use xlink:href="#ArialMT-6f" x="49.958984"/>
     <use xlink:href="#ArialMT-70" x="105.574219"/>
     <use xlink:href="#ArialMT-69" x="161.189453"/>
     <use xlink:href="#ArialMT-63" x="183.40625"/>
     <use xlink:href="#ArialMT-73" x="233.40625"/>
     <use xlink:href="#ArialMT-20" x="283.40625"/>
     <use xlink:href="#ArialMT-4f" x="311.189453"/>
     <use xlink:href="#ArialMT-76" x="388.972656"/>
     <use xlink:href="#ArialMT-65" x="438.972656"/>
     <use xlink:href="#ArialMT-72" x="494.587891"/>
     <use xlink:href="#ArialMT-20" x="527.888672"/>
     <use xlink:href="#ArialMT-54" x="553.921875"/>
     <use xlink:href="#ArialMT-69" x="611.255859"/>
     <use xlink:href="#ArialMT-6d" x="633.472656"/>
     <use xlink:href="#ArialMT-65" x="716.773438"/>
    </g>
   </g>
   <g id="legend_1">
    <g id="patch_7">
     <path d="M 441.338531 198.366344 
L 564.789469 198.366344 
Q 566.989469 198.366344 566.989469 196.166344 
L 566.989469 56.444 
Q 566.989469 54.244 564.789469 54.244 
L 441.338531 54.244 
Q 439.138531 54.244 439.138531 56.444 
L 439.138531 196.166344 
Q 439.138531 198.366344 441.338531 198.366344 
z
" style="fill: #eaeaf2; opacity: 0.3; stroke: #cccccc; stroke-linejoin: miter"/>
    </g>
    <g id="line2d_37">
     <path d="M 443.538531 62.801656 
L 454.538531 62.801656 
L 465.538531 62.801656 
" style="fill: none; stroke: #4c72b0; stroke-width: 1.5; stroke-linecap: round"/>
    </g>
    <g id="text_20">
     <!-- Spiritual/Family -->
     <g style="fill: #262626" transform="translate(474.338531 66.651656) scale(0.11 -0.11)">
      <defs>
       <path id="ArialMT-74" d="M 1650 503 
L 1731 6 
Q 1494 -44 1306 -44 
Q 1000 -44 831 53 
Q 663 150 594 308 
Q 525 466 525 972 
L 525 2881 
L 113 2881 
L 113 3319 
L 525 3319 
L 525 4141 
L 1084 4478 
L 1084 3319 
L 1650 3319 
L 1650 2881 
L 1084 2881 
L 1084 941 
Q 1084 700 1114 631 
Q 1144 563 1211 522 
Q 1278 481 1403 481 
Q 1497 481 1650 503 
z
" transform="scale(0.015625)"/>
       <path id="ArialMT-75" d="M 2597 0 
L 2597 488 
Q 2209 -75 1544 -75 
Q 1250 -75 995 37 
Q 741 150 617 320 
Q 494 491 444 738 
Q 409 903 409 1263 
L 409 3319 
L 972 3319 
L 972 1478 
Q 972 1038 1006 884 
Q 1059 663 1231 536 
Q 1403 409 1656 409 
Q 1909 409 2131 539 
Q 2353 669 2445 892 
Q 2538 1116 2538 1541 
L 2538 3319 
L 3100 3319 
L 3100 0 
L 2597 0 
z
" transform="scale(0.015625)"/>
       <path id="ArialMT-2f" d="M 0 -78 
L 1328 4659 
L 1778 4659 
L 453 -78 
L 0 -78 
z
" transform="scale(0.015625)"/>
       <path id="ArialMT-46" d="M 525 0 
L 525 4581 
L 3616 4581 
L 3616 4041 
L 1131 4041 
L 1131 2622 
L 3281 2622 
L 3281 2081 
L 1131 2081 
L 1131 0 
L 525 0 
z
" transform="scale(0.015625)"/>
       <path id="ArialMT-79" d="M 397 -1278 
L 334 -750 
Q 519 -800 656 -800 
Q 844 -800 956 -737 
Q 1069 -675 1141 -563 
Q 1194 -478 1313 -144 
Q 1328 -97 1363 -6 
L 103 3319 
L 709 3319 
L 1400 1397 
Q 1534 1031 1641 628 
Q 1738 1016 1872 1384 
L 2581 3319 
L 3144 3319 
L 1881 -56 
Q 1678 -603 1566 -809 
Q 1416 -1088 1222 -1217 
Q 1028 -1347 759 -1347 
Q 597 -1347 397 -1278 
z
" transform="scale(0.015625)"/>
      </defs>
      <use xlink:href="#ArialMT-53"/>
      <use xlink:href="#ArialMT-70" x="66.699219"/>
      <use xlink:href="#ArialMT-69" x="122.314453"/>
      <use xlink:href="#ArialMT-72" x="144.53125"/>
      <use xlink:href="#ArialMT-69" x="177.832031"/>
      <use xlink:href="#ArialMT-74" x="200.048828"/>
      <use xlink:href="#ArialMT-75" x="227.832031"/>
      <use xlink:href="#ArialMT-61" x="283.447266"/>
      <use xlink:href="#ArialMT-6c" x="339.0625"/>
      <use xlink:href="#ArialMT-2f" x="361.279297"/>
      <use xlink:href="#ArialMT-46" x="389.0625"/>
      <use xlink:href="#ArialMT-61" x="450.146484"/>
      <use xlink:href="#ArialMT-6d" x="505.761719"/>
      <use xlink:href="#ArialMT-69" x="589.0625"/>
      <use xlink:href="#ArialMT-6c" x="611.279297"/>
      <use xlink:href="#ArialMT-79" x="633.496094"/>
     </g>
    </g>
    <g id="line2d_38">
     <path d="M 443.538531 78.490406 
L 454.538531 78.490406 
L 465.538531 78.490406 
" style="fill: none; stroke: #dd8452; stroke-width: 1.5; stroke-linecap: round"/>
    </g>
    <g id="text_21">
     <!-- Club -->
     <g style="fill: #262626" transform="translate(474.338531 82.340406) scale(0.11 -0.11)">
      <defs>
       <path id="ArialMT-43" d="M 3763 1606 
L 4369 1453 
Q 4178 706 3683 314 
Q 3188 -78 2472 -78 
Q 1731 -78 1267 223 
Q 803 525 561 1097 
Q 319 1669 319 2325 
Q 319 3041 592 3573 
Q 866 4106 1370 4382 
Q 1875 4659 2481 4659 
Q 3169 4659 3637 4309 
Q 4106 3959 4291 3325 
L 3694 3184 
Q 3534 3684 3231 3912 
Q 2928 4141 2469 4141 
Q 1941 4141 1586 3887 
Q 1231 3634 1087 3207 
Q 944 2781 944 2328 
Q 944 1744 1114 1308 
Q 1284 872 1643 656 
Q 2003 441 2422 441 
Q 2931 441 3284 734 
Q 3638 1028 3763 1606 
z
" transform="scale(0.015625)"/>
       <path id="ArialMT-62" d="M 941 0 
L 419 0 
L 419 4581 
L 981 4581 
L 981 2947 
Q 1338 3394 1891 3394 
Q 2197 3394 2470 3270 
Q 2744 3147 2920 2923 
Q 3097 2700 3197 2384 
Q 3297 2069 3297 1709 
Q 3297 856 2875 390 
Q 2453 -75 1863 -75 
Q 1275 -75 941 416 
L 941 0 
z
M 934 1684 
Q 934 1088 1097 822 
Q 1363 388 1816 388 
Q 2184 388 2453 708 
Q 2722 1028 2722 1663 
Q 2722 2313 2464 2622 
Q 2206 2931 1841 2931 
Q 1472 2931 1203 2611 
Q 934 2291 934 1684 
z
" transform="scale(0.015625)"/>
      </defs>
      <use xlink:href="#ArialMT-43"/>
      <use xlink:href="#ArialMT-6c" x="72.216797"/>
      <use xlink:href="#ArialMT-75" x="94.433594"/>
      <use xlink:href="#ArialMT-62" x="150.048828"/>
     </g>
    </g>
    <g id="line2d_39">
     <path d="M 443.538531 94.05025 
L 454.538531 94.05025 
L 465.538531 94.05025 
" style="fill: none; stroke: #55a868; stroke-width: 1.5; stroke-linecap: round"/>
    </g>
    <g id="text_22">
     <!-- Violence -->
     <g style="fill: #262626" transform="translate(474.338531 97.90025) scale(0.11 -0.11)">
      <defs>
       <path id="ArialMT-56" d="M 1803 0 
L 28 4581 
L 684 4581 
L 1875 1253 
Q 2019 853 2116 503 
Q 2222 878 2363 1253 
L 3600 4581 
L 4219 4581 
L 2425 0 
L 1803 0 
z
" transform="scale(0.015625)"/>
       <path id="ArialMT-6e" d="M 422 0 
L 422 3319 
L 928 3319 
L 928 2847 
Q 1294 3394 1984 3394 
Q 2284 3394 2536 3286 
Q 2788 3178 2913 3003 
Q 3038 2828 3088 2588 
Q 3119 2431 3119 2041 
L 3119 0 
L 2556 0 
L 2556 2019 
Q 2556 2363 2490 2533 
Q 2425 2703 2258 2804 
Q 2091 2906 1866 2906 
Q 1506 2906 1245 2678 
Q 984 2450 984 1813 
L 984 0 
L 422 0 
z
" transform="scale(0.015625)"/>
      </defs>
      <use xlink:href="#ArialMT-56"/>
      <use xlink:href="#ArialMT-69" x="64.949219"/>
      <use xlink:href="#ArialMT-6f" x="87.166016"/>
      <use xlink:href="#ArialMT-6c" x="142.78125"/>
      <use xlink:href="#ArialMT-65" x="164.998047"/>
      <use xlink:href="#ArialMT-6e" x="220.613281"/>
      <use xlink:href="#ArialMT-63" x="276.228516"/>
      <use xlink:href="#ArialMT-65" x="326.228516"/>
     </g>
    </g>
    <g id="line2d_40">
     <path d="M 443.538531 109.744156 
L 454.538531 109.744156 
L 465.538531 109.744156 
" style="fill: none; stroke: #c44e52; stroke-width: 1.5; stroke-linecap: round"/>
    </g>
    <g id="text_23">
     <!-- Jewelry/Bling -->
     <g style="fill: #262626" transform="translate(474.338531 113.594156) scale(0.11 -0.11)">
      <defs>
       <path id="ArialMT-4a" d="M 184 1300 
L 731 1375 
Q 753 850 928 656 
Q 1103 463 1413 463 
Q 1641 463 1806 567 
Q 1972 672 2034 851 
Q 2097 1031 2097 1425 
L 2097 4581 
L 2703 4581 
L 2703 1459 
Q 2703 884 2564 568 
Q 2425 253 2123 87 
Q 1822 -78 1416 -78 
Q 813 -78 492 269 
Q 172 616 184 1300 
z
" transform="scale(0.015625)"/>
       <path id="ArialMT-77" d="M 1034 0 
L 19 3319 
L 600 3319 
L 1128 1403 
L 1325 691 
Q 1338 744 1497 1375 
L 2025 3319 
L 2603 3319 
L 3100 1394 
L 3266 759 
L 3456 1400 
L 4025 3319 
L 4572 3319 
L 3534 0 
L 2950 0 
L 2422 1988 
L 2294 2553 
L 1622 0 
L 1034 0 
z
" transform="scale(0.015625)"/>
       <path id="ArialMT-42" d="M 469 0 
L 469 4581 
L 2188 4581 
Q 2713 4581 3030 4442 
Q 3347 4303 3526 4014 
Q 3706 3725 3706 3409 
Q 3706 3116 3547 2856 
Q 3388 2597 3066 2438 
Q 3481 2316 3704 2022 
Q 3928 1728 3928 1328 
Q 3928 1006 3792 729 
Q 3656 453 3456 303 
Q 3256 153 2954 76 
Q 2653 0 2216 0 
L 469 0 
z
M 1075 2656 
L 2066 2656 
Q 2469 2656 2644 2709 
Q 2875 2778 2992 2937 
Q 3109 3097 3109 3338 
Q 3109 3566 3000 3739 
Q 2891 3913 2687 3977 
Q 2484 4041 1991 4041 
L 1075 4041 
L 1075 2656 
z
M 1075 541 
L 2216 541 
Q 2509 541 2628 563 
Q 2838 600 2978 687 
Q 3119 775 3209 942 
Q 3300 1109 3300 1328 
Q 3300 1584 3169 1773 
Q 3038 1963 2805 2039 
Q 2572 2116 2134 2116 
L 1075 2116 
L 1075 541 
z
" transform="scale(0.015625)"/>
       <path id="ArialMT-67" d="M 319 -275 
L 866 -356 
Q 900 -609 1056 -725 
Q 1266 -881 1628 -881 
Q 2019 -881 2231 -725 
Q 2444 -569 2519 -288 
Q 2563 -116 2559 434 
Q 2191 0 1641 0 
Q 956 0 581 494 
Q 206 988 206 1678 
Q 206 2153 378 2554 
Q 550 2956 876 3175 
Q 1203 3394 1644 3394 
Q 2231 3394 2613 2919 
L 2613 3319 
L 3131 3319 
L 3131 450 
Q 3131 -325 2973 -648 
Q 2816 -972 2473 -1159 
Q 2131 -1347 1631 -1347 
Q 1038 -1347 672 -1080 
Q 306 -813 319 -275 
z
M 784 1719 
Q 784 1066 1043 766 
Q 1303 466 1694 466 
Q 2081 466 2343 764 
Q 2606 1063 2606 1700 
Q 2606 2309 2336 2618 
Q 2066 2928 1684 2928 
Q 1309 2928 1046 2623 
Q 784 2319 784 1719 
z
" transform="scale(0.015625)"/>
      </defs>
      <use xlink:href="#ArialMT-4a"/>
      <use xlink:href="#ArialMT-65" x="50"/>
      <use xlink:href="#ArialMT-77" x="105.615234"/>
      <use xlink:href="#ArialMT-65" x="177.832031"/>
      <use xlink:href="#ArialMT-6c" x="233.447266"/>
      <use xlink:href="#ArialMT-72" x="255.664062"/>
      <use xlink:href="#ArialMT-79" x="288.964844"/>
      <use xlink:href="#ArialMT-2f" x="338.964844"/>
      <use xlink:href="#ArialMT-42" x="366.748047"/>
      <use xlink:href="#ArialMT-6c" x="433.447266"/>
      <use xlink:href="#ArialMT-69" x="455.664062"/>
      <use xlink:href="#ArialMT-6e" x="477.880859"/>
      <use xlink:href="#ArialMT-67" x="533.496094"/>
     </g>
    </g>
    <g id="line2d_41">
     <path d="M 443.538531 125.432906 
L 454.538531 125.432906 
L 465.538531 125.432906 
" style="fill: none; stroke: #8172b3; stroke-width: 1.5; stroke-linecap: round"/>
    </g>
    <g id="text_24">
     <!-- Sex -->
     <g style="fill: #262626" transform="translate(474.338531 129.282906) scale(0.11 -0.11)">
      <defs>
       <path id="ArialMT-78" d="M 47 0 
L 1259 1725 
L 138 3319 
L 841 3319 
L 1350 2541 
Q 1494 2319 1581 2169 
Q 1719 2375 1834 2534 
L 2394 3319 
L 3066 3319 
L 1919 1756 
L 3153 0 
L 2463 0 
L 1781 1031 
L 1600 1309 
L 728 0 
L 47 0 
z
" transform="scale(0.015625)"/>
      </defs>
      <use xlink:href="#ArialMT-53"/>
      <use xlink:href="#ArialMT-65" x="66.699219"/>
      <use xlink:href="#ArialMT-78" x="122.314453"/>
     </g>
    </g>
    <g id="line2d_42">
     <path d="M 443.538531 140.99275 
L 454.538531 140.99275 
L 465.538531 140.99275 
" style="fill: none; stroke: #937860; stroke-width: 1.5; stroke-linecap: round"/>
    </g>
    <g id="text_25">
     <!-- Party -->
     <g style="fill: #262626" transform="translate(474.338531 144.84275) scale(0.11 -0.11)">
      <defs>
       <path id="ArialMT-50" d="M 494 0 
L 494 4581 
L 2222 4581 
Q 2678 4581 2919 4538 
Q 3256 4481 3484 4323 
Q 3713 4166 3852 3881 
Q 3991 3597 3991 3256 
Q 3991 2672 3619 2267 
Q 3247 1863 2275 1863 
L 1100 1863 
L 1100 0 
L 494 0 
z
M 1100 2403 
L 2284 2403 
Q 2872 2403 3119 2622 
Q 3366 2841 3366 3238 
Q 3366 3525 3220 3729 
Q 3075 3934 2838 4000 
Q 2684 4041 2272 4041 
L 1100 4041 
L 1100 2403 
z
" transform="scale(0.015625)"/>
      </defs>
      <use xlink:href="#ArialMT-50"/>
      <use xlink:href="#ArialMT-61" x="66.699219"/>
      <use xlink:href="#ArialMT-72" x="122.314453"/>
      <use xlink:href="#ArialMT-74" x="155.615234"/>
      <use xlink:href="#ArialMT-79" x="183.398438"/>
     </g>
    </g>
    <g id="line2d_43">
     <path d="M 443.538531 156.6815 
L 454.538531 156.6815 
L 465.538531 156.6815 
" style="fill: none; stroke: #da8bc3; stroke-width: 1.5; stroke-linecap: round"/>
    </g>
    <g id="text_26">
     <!-- Music -->
     <g style="fill: #262626" transform="translate(474.338531 160.5315) scale(0.11 -0.11)">
      <defs>
       <path id="ArialMT-4d" d="M 475 0 
L 475 4581 
L 1388 4581 
L 2472 1338 
Q 2622 884 2691 659 
Q 2769 909 2934 1394 
L 4031 4581 
L 4847 4581 
L 4847 0 
L 4263 0 
L 4263 3834 
L 2931 0 
L 2384 0 
L 1059 3900 
L 1059 0 
L 475 0 
z
" transform="scale(0.015625)"/>
      </defs>
      <use xlink:href="#ArialMT-4d"/>
      <use xlink:href="#ArialMT-75" x="83.300781"/>
      <use xlink:href="#ArialMT-73" x="138.916016"/>
      <use xlink:href="#ArialMT-69" x="188.916016"/>
      <use xlink:href="#ArialMT-63" x="211.132812"/>
     </g>
    </g>
    <g id="line2d_44">
     <path d="M 443.538531 172.241344 
L 454.538531 172.241344 
L 465.538531 172.241344 
" style="fill: none; stroke: #8c8c8c; stroke-width: 1.5; stroke-linecap: round"/>
    </g>
    <g id="text_27">
     <!-- West Coast/Weed -->
     <g style="fill: #262626" transform="translate(474.338531 176.091344) scale(0.11 -0.11)">
      <defs>
       <path id="ArialMT-57" d="M 1294 0 
L 78 4581 
L 700 4581 
L 1397 1578 
Q 1509 1106 1591 641 
Q 1766 1375 1797 1488 
L 2669 4581 
L 3400 4581 
L 4056 2263 
Q 4303 1400 4413 641 
Q 4500 1075 4641 1638 
L 5359 4581 
L 5969 4581 
L 4713 0 
L 4128 0 
L 3163 3491 
Q 3041 3928 3019 4028 
Q 2947 3713 2884 3491 
L 1913 0 
L 1294 0 
z
" transform="scale(0.015625)"/>
      </defs>
      <use xlink:href="#ArialMT-57"/>
      <use xlink:href="#ArialMT-65" x="92.634766"/>
      <use xlink:href="#ArialMT-73" x="148.25"/>
      <use xlink:href="#ArialMT-74" x="198.25"/>
      <use xlink:href="#ArialMT-20" x="226.033203"/>
      <use xlink:href="#ArialMT-43" x="253.816406"/>
      <use xlink:href="#ArialMT-6f" x="326.033203"/>
      <use xlink:href="#ArialMT-61" x="381.648438"/>
      <use xlink:href="#ArialMT-73" x="437.263672"/>
      <use xlink:href="#ArialMT-74" x="487.263672"/>
      <use xlink:href="#ArialMT-2f" x="515.046875"/>
      <use xlink:href="#ArialMT-57" x="542.830078"/>
      <use xlink:href="#ArialMT-65" x="635.464844"/>
      <use xlink:href="#ArialMT-65" x="691.080078"/>
      <use xlink:href="#ArialMT-64" x="746.695312"/>
     </g>
    </g>
    <g id="line2d_45">
     <path d="M 443.538531 187.801187 
L 454.538531 187.801187 
L 465.538531 187.801187 
" style="fill: none; stroke: #ccb974; stroke-width: 1.5; stroke-linecap: round"/>
    </g>
    <g id="text_28">
     <!-- Money -->
     <g style="fill: #262626" transform="translate(474.338531 191.651187) scale(0.11 -0.11)">
      <use xlink:href="#ArialMT-4d"/>
      <use xlink:href="#ArialMT-6f" x="83.300781"/>
      <use xlink:href="#ArialMT-6e" x="138.916016"/>
      <use xlink:href="#ArialMT-65" x="194.53125"/>
      <use xlink:href="#ArialMT-79" x="250.146484"/>
     </g>
    </g>
   </g>
  </g>
 </g>
 <defs>
  <clipPath id="p3a88412e67">
   <rect x="108" y="43.2" width="669.6" height="277.2"/>
  </clipPath>
 </defs>
</svg>
